<svg width="178" height="54" viewBox="0 0 178 54" fill="none" xmlns="http://www.w3.org/2000/svg">
<path d="M10.0417 51.28C10.0418 51.293 10.0494 52.5354 11.5064 52.5354C12.9634 52.5354 12.971 51.293 12.9711 51.28V47.0953H14.5403V51.6985C14.5403 51.7161 14.5282 54.0001 11.4018 54.0001C8.48376 54.0001 8.47251 51.7161 8.47246 51.6985V47.0953H10.0417V51.28Z" fill="#5F008D"/>
<path d="M52.0984 51.28C52.0984 51.293 52.106 52.5354 53.563 52.5354C55.02 52.5354 55.0277 51.293 55.0277 51.28V47.0953H56.597V51.6985C56.5969 51.7161 56.5849 54.0001 53.4584 54.0001C50.5404 54.0001 50.5291 51.7161 50.5291 51.6985V47.0953H52.0984V51.28Z" fill="#5F008D"/>
<path fill-rule="evenodd" clip-rule="evenodd" d="M71.2436 46.886C73.3236 46.8861 75.0098 48.4786 75.0098 50.4431C75.0098 52.4075 73.3236 54.0001 71.2436 54.0001C69.1636 54.0001 67.4774 52.4075 67.4773 50.4431C67.4773 48.4786 69.1635 46.886 71.2436 46.886ZM71.2436 48.1415C70.088 48.1415 69.1512 49.1719 69.1512 50.4431C69.1512 51.7142 70.088 52.7447 71.2436 52.7447C72.3991 52.7447 73.3359 51.7142 73.3359 50.4431C73.3359 49.1719 72.3991 48.1415 71.2436 48.1415Z" fill="#5F008D"/>
<path d="M117.694 46.9907L118.322 47.1999L118.74 47.4091L118.217 48.6646L117.276 48.2461L116.857 48.1415H115.916L115.602 48.2461L115.183 48.6646V49.1877L115.393 49.3969L115.706 49.6061L117.276 49.92L117.694 50.1292L118.322 50.5477L118.74 50.9662L118.95 51.28L119.054 51.4893V51.9077L118.95 52.4308L118.74 53.0585L118.322 53.477L117.485 53.8955L116.962 54.0001H115.393L114.765 53.8955L114.346 53.6862L113.509 53.1632L114.033 52.117L114.556 52.4308L115.183 52.6401L115.811 52.7447H116.648L117.066 52.6401L117.38 52.3262L117.485 52.0124L117.38 51.6985L117.066 51.3846L116.439 51.1754L114.974 50.7569L114.556 50.5477L113.928 50.1292L113.719 49.7107L113.614 48.9784L113.719 48.2461L114.137 47.6184L114.974 46.9907L115.916 46.886H116.753L117.694 46.9907Z" fill="#5F008D"/>
<path fill-rule="evenodd" clip-rule="evenodd" d="M158.705 46.886C160.785 46.8861 162.471 48.4786 162.471 50.4431C162.471 52.4075 160.785 54.0001 158.705 54.0001C156.625 54.0001 154.938 52.4075 154.938 50.4431C154.938 48.4786 156.625 46.886 158.705 46.886ZM158.705 48.1415C157.549 48.1415 156.612 49.1719 156.612 50.4431C156.612 51.7142 157.549 52.7447 158.705 52.7447C159.86 52.7447 160.797 51.7142 160.797 50.4431C160.797 49.1719 159.86 48.1415 158.705 48.1415Z" fill="#5F008D"/>
<path fill-rule="evenodd" clip-rule="evenodd" d="M32.744 53.8158H31.1142L30.5316 52.3912H27.4237L26.8424 53.8125H25.2114L28.2133 47.1202H29.7546L32.744 53.8158ZM27.9213 51.1826H30.0184L28.9761 48.6611L27.9213 51.1826Z" fill="#5F008D"/>
<path fill-rule="evenodd" clip-rule="evenodd" d="M93.4227 53.8158H91.7929L91.2104 52.3912H88.1025L87.5211 53.8125H85.8902L88.892 47.1202H90.4333L93.4227 53.8158ZM88.6 51.1826H90.6971L89.6548 48.6611L88.6 51.1826Z" fill="#5F008D"/>
<path fill-rule="evenodd" clip-rule="evenodd" d="M112.999 53.8158H111.367L110.783 52.3912H107.67L107.088 53.8125H105.454L108.461 47.1202H110.005L112.999 53.8158ZM108.168 51.1826H110.269L109.225 48.6611L108.168 51.1826Z" fill="#5F008D"/>
<path d="M6.69558 53.8135H5.159V51.0761H2.1643V53.8135H0.627711V47.1312H2.16736V49.7612H5.15594V47.1243H6.69558V53.8135Z" fill="#5F008D"/>
<path d="M20.2944 51.1754L22.8052 47.0953H24.0606V53.7909H22.596L22.4913 49.92L20.7128 53.0585H19.9805L18.0974 49.92L17.9927 53.7909H16.5281V47.0953H17.8881L20.2944 51.1754Z" fill="#5F008D"/>
<path d="M38.1318 51.1443V47.0953H39.6488V53.7909H38.3846L35.0979 49.7416V53.7909H33.5809V47.0953H34.8451L38.1318 51.1443Z" fill="#5F008D"/>
<path d="M62.351 51.1754L64.8618 47.0953H66.1173V53.7909H64.6526L64.548 49.92L62.7695 53.0585H62.0371L60.154 49.92L60.0494 53.7909H58.5847V47.0953H59.9448L62.351 51.1754Z" fill="#5F008D"/>
<path fill-rule="evenodd" clip-rule="evenodd" d="M79.5084 47.0953C79.5177 47.0953 82.0473 47.0995 82.0473 49.3969C82.0472 51.0707 80.7639 51.6985 80.7639 51.6985L82.2285 53.7909H80.5546L79.2992 51.9077H77.9392V53.7909H76.3699V47.0953H79.5084ZM77.9392 50.6523H79.5084C80.1439 50.6523 80.5546 50.1292 80.5546 49.6061C80.5546 49.083 80.144 48.3507 79.5084 48.3507H77.9392V50.6523Z" fill="#5F008D"/>
<path d="M101.792 52.5354H105.14V53.7909H100.223V47.0953H101.792V52.5354Z" fill="#5F008D"/>
<path d="M127.894 51.1443V47.0953H129.621V53.7909H128.147L124.861 49.7416V53.7909H123.344V47.0953H124.608L127.894 51.1443Z" fill="#5F008D"/>
<path d="M136.316 48.3507H132.864V49.8154H135.898V50.9662H132.864V52.5354H136.526V53.7909H131.295V47.0953H136.316V48.3507Z" fill="#5F008D"/>
<path d="M146.778 51.8031L148.452 47.0953H149.917L151.381 51.8031L152.951 47.0953H154.415L152.323 53.7629L150.544 53.7909L149.08 49.3969L147.615 53.7909H145.941L143.744 47.0953H145.313L146.778 51.8031Z" fill="#5F008D"/>
<path fill-rule="evenodd" clip-rule="evenodd" d="M166.969 47.0953C166.979 47.0953 169.508 47.0995 169.508 49.3969C169.508 51.0707 168.225 51.6985 168.225 51.6985L169.69 53.7909H168.016L166.76 51.9077H165.4V53.7909H163.831V47.0953H166.969ZM165.4 50.6523H166.969C167.605 50.6523 168.016 50.1292 168.016 49.6061C168.016 49.083 167.605 48.3507 166.969 48.3507H165.4V50.6523Z" fill="#5F008D"/>
<path d="M172.619 47.0953V50.2338L175.548 47.0953H177.222L174.502 50.1292L177.431 53.7909H175.548L173.56 51.1754L172.619 52.117V53.7909H171.05V47.0953H172.619Z" fill="#5F008D"/>
<path d="M49.5698 48.356H47.4239V53.7739H45.8619V48.356H43.7111V47.0783H49.5681L49.5698 48.356Z" fill="#5F008D"/>
<path d="M98.9497 48.356H96.8038V53.7739H95.2419V48.356H93.0911V47.0783H98.9481L98.9497 48.356Z" fill="#5F008D"/>
<path d="M143.099 48.356H140.953V53.7739H139.391V48.356H137.24V47.0783H143.097L143.099 48.356Z" fill="#5F008D"/>
<path fill-rule="evenodd" clip-rule="evenodd" d="M130.784 43.9712H120.072L116.243 34.624H95.8173L91.9956 43.95H81.2765L101.007 0.0418883H111.137L130.784 43.9712ZM99.0866 26.6945H112.87L106.02 10.1509L99.0866 26.6945Z" fill="#5F008D"/>
<path d="M165.505 26.5901V0.0169596H175.548V43.9567H167.179L145.418 17.3836V43.9567H135.375V0.0169596H143.744L165.505 26.5901Z" fill="#5F008D"/>
<path d="M83.9024 8.38644H69.8702V43.9496H59.6575V8.38644H45.5943V0H83.8912L83.9024 8.38644Z" fill="#5F008D"/>
<path d="M40.3321 43.9443H30.1193V25.9681H10.2128V43.9443H0V0.0625259H10.2336V17.333H30.0987V0.0169596H40.3321V43.9443Z" fill="#5F008D"/>
</svg>
