<svg width="18" height="17" viewBox="0 0 18 17" fill="none" xmlns="http://www.w3.org/2000/svg">
<path d="M5.8418 11.3682C7.32425 11.3682 8.52637 12.5703 8.52637 14.0527C8.5263 15.5351 7.3242 16.7363 5.8418 16.7363C4.35953 16.7362 3.15827 15.535 3.1582 14.0527C3.1582 12.5704 4.35949 11.3683 5.8418 11.3682ZM12.1572 11.3682C13.6397 11.3682 14.8418 12.5703 14.8418 14.0527C14.8417 15.5351 13.6396 16.7363 12.1572 16.7363C10.675 16.7361 9.4737 15.535 9.47363 14.0527C9.47363 12.5704 10.6749 11.3684 12.1572 11.3682ZM2.68457 5.68457C4.16673 5.68476 5.36797 6.88601 5.36816 8.36816C5.36816 9.85049 4.16685 11.0525 2.68457 11.0527C1.20212 11.0527 0 9.85061 0 8.36816C0.000199056 6.88589 1.20224 5.68457 2.68457 5.68457ZM9 5.68457C10.4823 5.68457 11.6844 6.88589 11.6846 8.36816C11.6846 9.85061 10.4824 11.0527 9 11.0527C7.51756 11.0527 6.31543 9.8506 6.31543 8.36816C6.31563 6.88589 7.51768 5.68457 9 5.68457ZM15.3154 5.68457C16.7977 5.68459 17.9998 6.8859 18 8.36816C18 9.8506 16.7979 11.0527 15.3154 11.0527C13.833 11.0527 12.6309 9.85061 12.6309 8.36816C12.6311 6.88589 13.8331 5.68457 15.3154 5.68457ZM5.8418 0C7.32425 0 8.52637 1.20213 8.52637 2.68457C8.52617 4.16684 7.32412 5.36816 5.8418 5.36816C4.35961 5.368 3.1584 4.16674 3.1582 2.68457C3.1582 1.20223 4.35949 0.000164529 5.8418 0ZM12.1572 0C13.6397 0 14.8418 1.20213 14.8418 2.68457C14.8416 4.16684 13.6396 5.36816 12.1572 5.36816C10.6751 5.36796 9.47383 4.16672 9.47363 2.68457C9.47363 1.20225 10.6749 0.000200858 12.1572 0Z" fill="#457CA1"/>
</svg>
