<svg width="162" height="54" viewBox="0 0 162 54" fill="none" xmlns="http://www.w3.org/2000/svg">
<g clip-path="url(#clip0_3352_643)">
<path d="M0 0H161.402V54H0V0Z" fill="#FEFEFE"/>
<path d="M10.6582 4.28699C11.7977 4.31206 13.0199 4.29259 14.1655 4.29382C14.5683 5.38527 15.2656 6.86876 15.7453 7.96624L18.3959 14.0389C18.7329 14.7951 19.0585 15.5562 19.3729 16.322C19.5509 16.746 19.8422 17.4781 20.0687 17.8484C20.3017 17.03 20.9961 15.4691 21.3494 14.6336C22.0716 12.9254 22.7704 11.172 23.5331 9.48626C23.6274 9.30343 23.6627 9.00777 23.7517 8.83359C24.4847 7.3982 24.9689 5.71741 25.6944 4.2911L29.1573 4.29484C29.6046 5.19833 30.122 6.50476 30.5363 7.45594L34.1568 15.7797C34.6703 16.9485 35.2438 18.3941 35.8038 19.5134C35.1089 19.4985 33.2145 19.6117 32.6461 19.4881C32.4413 19.255 31.3697 16.6088 31.1885 16.1479C29.7026 16.1778 28.1487 16.155 26.6561 16.156C26.6607 15.3108 26.6577 14.4656 26.6471 13.6205C27.8103 13.6083 28.9737 13.6082 30.1369 13.62C29.8797 12.9009 29.4311 11.9577 29.1386 11.2319C28.9119 10.6694 28.5991 9.87809 28.3442 9.3442C28.2751 9.12378 27.4868 7.19603 27.392 7.13164C27.2495 7.32032 26.7415 8.81349 26.6066 9.15327L23.9567 15.9021L23.0633 18.1741C22.9071 18.5757 22.738 19.0839 22.5575 19.464L22.535 19.5107C20.8945 19.5397 19.2241 19.5013 17.5772 19.5161C17.1369 18.4298 16.6419 17.2101 16.1542 16.1537C14.6564 16.1736 13.1517 16.1398 11.6496 16.1638C11.6724 15.4218 11.6696 14.3412 11.6378 13.6127L15.1057 13.6183C15.0165 13.3111 14.7254 12.6892 14.5916 12.3657C14.1774 11.3523 13.7581 10.3412 13.3334 9.33219C13.0602 8.6886 12.5882 7.6598 12.4295 7.02775C12.1804 7.5283 11.8992 8.35629 11.684 8.90146L9.88365 13.5567L8.32972 17.4678C8.11052 18.022 7.69966 18.9773 7.55237 19.5138C6.53024 19.5482 5.33273 19.5032 4.28302 19.5147C4.61207 18.8198 4.89268 18.0732 5.19232 17.3628L7.29586 12.3172L9.56658 6.90486C9.92339 6.05172 10.3349 5.14708 10.6582 4.28699Z" fill="#201D1E"/>
<path d="M54.2286 4.29468C55.951 4.32938 57.6861 4.28204 59.4094 4.29913C59.9151 4.30418 60.4412 4.28806 60.9414 4.3687C63.6616 4.58572 65.5391 6.34617 65.3105 9.17758C65.1647 10.9804 64.489 11.7226 63.0416 12.6515C64.387 14.8941 65.9517 17.2721 67.3643 19.488L64.0135 19.4968C63.455 18.4661 62.6004 17.1895 61.9783 16.1639C61.496 15.3692 60.7514 14.0932 60.2291 13.356C59.2492 13.3443 58.1451 13.3747 57.1825 13.3439C57.2238 14.0171 57.1961 14.9301 57.1949 15.618L57.1842 19.4996C56.3789 19.4993 55.5503 19.5088 54.7471 19.4929L54.2545 19.5008C54.2205 17.4432 54.2686 15.3647 54.2197 13.314C53.9549 13.3834 52.2317 13.3546 51.8492 13.3557L47.096 13.37C46.1984 13.3713 45.1513 13.3456 44.2636 13.3887C44.2542 12.5266 44.2508 11.6643 44.2534 10.8022L44.2453 10.6845C44.4854 10.6237 46.7063 10.653 47.0888 10.6534L54.2278 10.6421C54.2405 8.52632 54.2405 6.41048 54.2286 4.29468Z" fill="#50B94B"/>
<path d="M56.9247 19.3718C56.9243 19.1489 56.9273 18.926 56.9332 18.7031L57.0199 19.0062L57.0484 18.9816L57.0407 19.0149C57.0535 18.9009 57.0301 15.6634 57.0127 15.6169C56.9562 15.8034 57.0127 17.6847 56.9761 18.0756L56.9328 18.0668C56.9222 17.1312 56.8822 15.3938 56.9829 14.5301L56.9906 14.6114L57.0611 14.1935L57.0603 14.4648C57.1211 14.1753 57.0297 13.5483 57.1827 13.344C57.2239 14.0172 57.1963 14.9303 57.195 15.6181L57.1844 19.4997C56.3791 19.4995 55.5504 19.5089 54.7472 19.493C54.8369 19.4332 56.6238 19.4199 56.9247 19.3718Z" fill="#5BC557"/>
<path d="M57.2 6.81479C58.2989 6.79523 59.3979 6.79748 60.4969 6.82157C60.9392 6.84376 61.5176 7.07405 61.8351 7.36051C62.6221 8.07053 62.6625 9.3421 61.8508 10.0506C61.04 10.7583 59.8989 10.6664 58.9147 10.6629L57.1804 10.6545C57.2093 10.5071 57.1957 9.59411 57.1949 9.40331C57.1919 8.54045 57.1936 7.6776 57.2 6.81479Z" fill="#FEFEFE"/>
<path d="M132.285 17.8991L132.245 17.8373C132.438 17.6394 133.331 17.7334 133.623 17.7446C133.506 17.7257 133.407 17.7259 133.323 17.6494C133.364 17.6294 135.398 17.6801 135.511 17.7173C135.576 17.7388 135.661 17.7636 135.695 17.8289C135.804 18.0443 135.883 31.8716 135.731 33.0172C135.657 33.088 135.479 33.1172 135.388 33.109C135.011 33.0752 132.951 33.18 132.771 33.0502C132.642 32.8182 132.153 32.2249 131.966 31.9813C131.437 31.2933 130.912 30.6026 130.39 29.9092L127.236 25.7519C126.688 25.0243 126.048 24.1055 125.484 23.4272C125.448 24.628 125.469 25.8821 125.47 27.0877L125.474 33.0228L122.17 33.0239C122.13 27.9921 122.235 22.8924 122.159 17.8698L125.23 17.865C125.966 18.7636 126.726 19.8179 127.437 20.7523L132.303 27.1845C132.365 25.4898 132.289 23.5313 132.309 21.8107C132.32 20.8648 132.368 18.7802 132.285 17.8991Z" fill="#50B94B"/>
<path d="M132.285 17.8991L132.245 17.8373C132.438 17.6394 133.331 17.7334 133.623 17.7446C133.506 17.7257 133.407 17.7259 133.323 17.6494C133.364 17.6294 135.398 17.6801 135.511 17.7173C135.576 17.7388 135.661 17.7636 135.695 17.8289C135.804 18.0443 135.883 31.8716 135.731 33.0172C135.657 33.088 135.479 33.1172 135.388 33.109C135.011 33.0752 132.951 33.18 132.771 33.0502C133.025 32.9849 135.19 33.015 135.603 33.0174L135.607 17.8728C135.149 17.8611 132.51 17.8255 132.285 17.8991Z" fill="#F4F8F3"/>
<path d="M100.677 17.6263C103.244 17.5004 105.234 18.0543 107.179 19.7201C106.98 19.882 106.605 20.3616 106.424 20.5808L105.059 22.2559C104.314 21.6149 103.685 21.1967 102.731 20.8986C98.4137 19.5488 95.3102 24.305 97.3841 28.0157C97.945 29.0088 98.8787 29.7387 99.9789 30.0448C101.608 30.4889 103.025 30.1857 104.463 29.3695C104.484 28.6772 104.464 27.8891 104.462 27.1895L101.103 27.1913L101.097 24.3137C101.652 24.3287 102.272 24.3163 102.831 24.3157L107.683 24.3076L107.686 30.905C105.983 32.2709 104.588 32.9191 102.341 33.213C94.9354 34.1815 90.6186 26.3763 94.9647 20.5059C96.2983 18.7049 98.418 17.8612 100.677 17.6263Z" fill="#50B94B"/>
<path d="M143.159 17.8451C143.186 17.8219 143.218 17.7938 143.255 17.7607C143.642 17.7611 144.149 17.7547 144.525 17.7509C144.302 17.6959 143.992 17.7812 143.812 17.6985C143.98 17.6587 144.49 17.6757 144.688 17.6651C145.552 17.6188 146.396 17.669 147.254 17.6703L150.892 17.696C151.556 17.6971 152.44 17.6492 153.068 17.7081L152.478 17.7362C153.103 17.7588 153.705 17.7537 154.33 17.7492C154.168 17.7229 153.93 17.724 153.759 17.7197L153.76 17.6994C154.048 17.6716 154.332 17.6514 154.607 17.7538C154.694 17.8859 154.698 20.6049 154.63 20.8233L146.486 20.8329L146.485 23.9599C148.841 23.9342 151.251 23.9607 153.609 23.964C153.621 24.9503 153.621 25.9367 153.609 26.923L146.491 26.9282L146.488 30.034L154.688 30.0364L154.684 33.0237L143.186 33.0226L143.187 23.2313C143.187 21.5667 143.247 19.4704 143.159 17.8451Z" fill="#50B94B"/>
<path d="M143.159 17.8451C143.186 17.8219 143.218 17.7938 143.255 17.7607C143.642 17.7611 144.149 17.7547 144.525 17.7509C144.302 17.6959 143.992 17.7812 143.812 17.6985C143.98 17.6587 144.49 17.6757 144.688 17.6651C145.552 17.6188 146.396 17.669 147.254 17.6703L150.892 17.696C151.556 17.6971 152.44 17.6492 153.068 17.7081L152.478 17.7362C153.103 17.7588 153.705 17.7537 154.33 17.7492C154.168 17.7229 153.93 17.724 153.759 17.7197L153.76 17.6994C154.048 17.6716 154.332 17.6514 154.607 17.7538C154.694 17.8859 154.698 20.6049 154.63 20.8233C154.565 20.5377 154.596 18.3027 154.598 17.8738L146.471 17.8629L144.395 17.874C144.073 17.8758 143.451 17.8908 143.159 17.8451Z" fill="#F4F8F3"/>
<path d="M109.204 17.8704L120.631 17.8645L120.638 20.8323L112.532 20.8356L112.533 23.9586L119.649 23.9629C119.634 24.9335 119.657 25.9462 119.66 26.922L113.285 26.9255L112.535 26.9212C112.523 27.953 112.532 29.0009 112.533 30.0341L120.754 30.0361C120.773 31.0125 120.757 32.0394 120.756 33.0197L109.217 33.0236L109.22 23.6555C109.218 21.7987 109.264 19.7105 109.204 17.8704Z" fill="#50B94B"/>
<path d="M116.507 4.11682C119.476 3.92683 122.039 6.17105 122.237 9.13405C122.435 12.097 120.194 14.6611 117.226 14.8662C114.247 15.0721 111.667 12.8245 111.468 9.85081C111.27 6.87704 113.528 4.30747 116.507 4.11682Z" fill="#201D1E"/>
<path d="M116.106 4.94816C118.628 4.53571 121.004 6.24776 121.406 8.76595C121.808 11.2841 120.082 13.6486 117.558 14.0385C115.049 14.4261 112.698 12.7166 112.299 10.2143C111.9 7.71196 113.602 5.35801 116.106 4.94816Z" fill="#FEFEFE"/>
<path d="M43.8225 3.96429C43.9665 3.95445 44.111 3.95149 44.2555 3.95542C46.7479 4.01292 48.5676 4.92866 50.262 6.69692C49.5421 7.2524 48.7427 7.96102 48.0254 8.5512C47.1036 7.62955 46.2779 7.06983 44.9529 6.86354C43.6809 6.66773 42.383 6.97875 41.3388 7.72958C38.9972 9.44494 38.5757 12.7226 40.2911 15.0359C41.0753 16.0863 42.2505 16.7771 43.5509 16.9523C45.2601 17.1983 46.572 16.4819 47.8771 15.5022L47.9684 15.5036C48.2277 15.6654 49.8489 17.0719 50.092 17.3297C48.8277 18.7184 47.0977 19.5969 45.2287 19.7991C43.0537 20.0527 40.8677 19.4226 39.1627 18.0508C37.5428 16.7336 36.5085 14.8319 36.2844 12.7584C36.0484 10.6587 36.6678 8.55247 38.0033 6.9133C39.5551 5.00824 41.4387 4.20955 43.8225 3.96429Z" fill="#201D1E"/>
<path d="M102.657 4.19305L105.279 4.19103C106.744 4.19073 108.434 4.05939 109.71 4.90384C111.461 6.06266 111.294 8.80563 109.428 9.76193C108.849 10.0583 108.489 10.1495 107.848 10.2621C108.98 11.7653 110.162 13.2687 111.313 14.7608C111.02 14.7589 110.723 14.8041 110.433 14.7644C110.241 14.7382 110.234 14.6791 110.128 14.5377C109.046 13.1856 108.009 11.7515 106.92 10.3954C105.803 10.4307 104.594 10.4001 103.462 10.4163L103.458 14.7643L102.663 14.7679C102.669 11.2965 102.73 7.65466 102.657 4.19305Z" fill="#201D1E"/>
<path d="M106.778 4.94189C107.74 4.94287 108.774 5.00926 109.471 5.68424C110.742 6.91495 110.097 8.91291 108.477 9.43569C107.823 9.64655 107.539 9.65801 106.897 9.66399C105.763 9.6827 104.587 9.67018 103.45 9.67226C103.492 8.13964 103.464 6.49173 103.465 4.95051L106.778 4.94189Z" fill="#FEFEFE"/>
<path d="M137.772 17.8617L141.111 17.8681V27.8857C141.112 29.4777 141.18 31.4695 141.108 33.0214L137.771 33.0298L137.772 17.8617Z" fill="#50B94B"/>
<path d="M94.0837 4.19424L96.4507 4.1923C97.9594 4.18979 99.5963 4.10034 100.838 5.12392C102.111 6.17312 102.172 8.30347 101.103 9.51361C100.267 10.4611 99.0991 10.7223 97.9003 10.8014L94.8741 10.8045L94.869 14.7624L94.1104 14.7664C93.9859 11.321 94.1818 7.65772 94.0837 4.19424Z" fill="#201D1E"/>
<path d="M94.8711 4.94771L96.863 4.93961C97.3372 4.93817 97.8026 4.94695 98.2764 4.95408C100.683 4.99026 102.057 7.42755 100.236 9.29087C98.7953 10.3522 96.6169 10.0692 94.869 10.07L94.8711 4.94771Z" fill="#FEFEFE"/>
<path d="M94.8116 4.7215C95.2681 4.69384 95.8328 4.75145 96.2978 4.76914C96.721 4.78526 97.1498 4.78712 97.5701 4.81279C97.1851 4.81949 95.1478 4.8684 94.8852 4.80978C94.8648 4.76799 94.8456 4.75226 94.8116 4.7215Z" fill="#201D1E"/>
<path d="M129.651 4.19153C132.156 4.22734 134.689 4.17128 137.2 4.20506C137.199 4.44273 137.18 4.71299 137.169 4.953C134.942 4.92394 132.672 4.94629 130.442 4.94871C130.473 6.28128 130.441 7.75009 130.44 9.09377C131.987 9.06243 133.543 9.09458 135.091 9.07931C135.565 9.0746 136.047 9.07579 136.52 9.09772L136.524 9.80091L131.548 9.80265L130.444 9.8029L130.439 14.0502C132.684 14.0478 135.031 14.0072 137.264 14.0501L137.271 14.767L129.66 14.767C129.608 11.2634 129.713 7.70216 129.651 4.19153Z" fill="#201D1E"/>
<path d="M142.781 4.09232C142.898 4.08572 143.016 4.08148 143.133 4.07958C144.773 4.05716 146.146 4.65837 147.309 5.79127C147.121 5.96391 146.911 6.18674 146.729 6.37025C146.524 6.17979 146.286 5.95335 146.066 5.78465C145.068 5.01571 143.804 4.67839 142.555 4.84824C141.403 5.01724 140.363 5.62876 139.657 6.55231C138.109 8.61174 138.486 11.7744 140.579 13.3217C141.783 14.213 142.881 14.2601 144.298 14.0529C144.476 13.9759 144.722 13.9275 144.936 13.8396C145.731 13.513 146.23 13.0906 146.835 12.5068C146.998 12.6981 147.168 12.8847 147.342 13.0662C145.441 15.1597 142.167 15.5536 139.902 13.8024C137.58 12.0062 137.247 8.34729 139.041 6.06966C140.032 4.81138 141.214 4.28028 142.781 4.09232Z" fill="#201D1E"/>
<path d="M3.95428 23.2122L49.187 23.2192L61.6903 23.2226C63.8279 23.2213 66.2213 23.1668 68.3389 23.223C68.4409 23.3134 68.4086 23.2805 68.4362 23.4486L20.853 23.4468L9.74837 23.4472C7.86908 23.4473 5.91092 23.4784 4.03735 23.4452C3.95225 23.3664 3.97787 23.3595 3.95428 23.2122Z" fill="#0D0809"/>
<path d="M147.127 4.18774C149.811 4.23775 152.624 4.19622 155.321 4.20004L155.311 4.94945L151.618 4.95072C151.6 6.98389 151.594 9.0171 151.602 11.0503L151.605 14.7642L150.823 14.7667C150.866 11.5261 150.828 8.19692 150.831 4.94767L147.154 4.94555L147.127 4.18774Z" fill="#201D1E"/>
<path d="M3.9447 43.8656C5.72251 43.8354 7.59521 43.8685 9.38288 43.8685H20.5612L54.6039 43.8728H65.1588C65.5017 43.8724 68.2882 43.8401 68.4064 43.911L68.4416 44.0645L25.8139 44.0675L11.2185 44.0679C8.87704 44.0679 6.39575 44.1163 4.07333 44.0705C3.94974 43.9949 3.98886 44.0395 3.9447 43.8656Z" fill="#0D0809"/>
<path d="M127.449 4.19202L128.251 4.20002C128.194 5.95537 128.257 7.71833 128.234 9.4865C128.21 11.0826 128.498 13.1428 127.05 14.2685C125.626 15.3747 123.461 14.9737 122.36 13.6125C122.207 13.4001 122.03 13.1658 121.893 12.9457C122.068 12.8122 122.335 12.6048 122.542 12.5518C122.786 12.7146 123.095 13.3222 123.357 13.5396C124.767 14.7471 127.02 14.1896 127.361 12.2615C127.516 11.3821 127.45 10.2489 127.451 9.34367L127.449 4.19202Z" fill="#201D1E"/>
<path d="M93.3834 37.0059C93.7578 36.968 94.499 36.9887 94.9031 36.9885L97.696 36.988L106.872 36.9877L136.688 36.9874L150.169 36.9876L153.69 36.9874C154.109 36.9873 154.582 36.9788 155.004 36.9887C155.111 36.9913 155.117 37.0341 155.174 37.1149C154.913 37.2397 145.965 37.1673 144.958 37.1673L105.923 37.1683L96.4576 37.1649C95.5784 37.1641 94.4522 37.1633 93.5479 37.1686C93.4663 37.1691 93.4297 37.0771 93.3834 37.0059Z" fill="#0D0809"/>
<path d="M93.3749 51.8515C93.6685 51.8001 94.7811 51.8213 95.1372 51.8213L98.6976 51.823L111.941 51.8235L144.556 51.8239L152.035 51.8226C152.403 51.8218 154.86 51.7929 155.1 51.8519L155.158 51.988C154.195 52.0585 152.31 51.9991 151.29 51.9982L143.657 51.997L119.436 51.9974L101.634 51.9978L96.0985 51.9936C95.4763 51.9931 94.0442 52.0453 93.4798 51.9838L93.3749 51.8515Z" fill="#201D1E"/>
<path d="M37.1437 34.2798C37.8688 34.2756 38.6602 34.2224 39.3652 34.3851C40.6152 34.6736 40.7383 36.3179 39.6744 36.9248C39.555 36.9929 39.4015 37.0282 39.326 37.1298C39.424 37.3631 40.3189 38.6622 40.5329 38.9923C40.3476 38.9959 40.0289 39.0172 39.8619 38.9687C39.5259 38.3594 39.0761 37.7919 38.7489 37.1831L37.6821 37.1852L37.6838 38.9932L37.1466 38.9978L37.1437 34.2798Z" fill="#201D1E"/>
<path d="M37.6867 34.773L38.4614 34.7717C39.0247 34.7727 39.3419 34.8164 39.7397 35.2138C39.8896 35.6658 39.9206 35.9864 39.6118 36.3808C39.1337 36.8287 38.3235 36.7139 37.6815 36.7049L37.6867 34.773Z" fill="#FEFEFE"/>
<path d="M46.1769 27.4168C48.4649 27.1579 48.6727 30.5766 46.7914 31.0043C44.7315 31.4633 44.1264 27.9756 46.1769 27.4168Z" fill="#201D1E"/>
<path d="M46.2482 27.8797C47.6952 27.7326 47.9893 29.8697 46.8219 30.5236C45.3532 30.9365 44.8777 28.5169 46.2482 27.8797Z" fill="#FEFEFE"/>
<path d="M7.75251 35.4375C9.76005 35.2363 10.3132 38.463 8.16732 39.0805C6.21719 39.3514 5.57315 35.9485 7.75251 35.4375Z" fill="#201D1E"/>
<path d="M7.78857 35.8891C9.11664 35.8561 9.36579 37.5781 8.56954 38.3675C8.47519 38.461 8.28536 38.5463 8.16352 38.6048C7.94862 38.6087 7.77685 38.6257 7.58327 38.5198C6.60632 37.9851 6.67206 36.2302 7.78857 35.8891Z" fill="#FEFEFE"/>
<path d="M62.4204 27.4164C64.0973 27.1857 64.7589 29.1032 64.0352 30.3086C63.8274 30.6578 63.4857 30.9072 63.0892 30.9993C61.0486 31.4178 60.3945 28.1527 62.4204 27.4164Z" fill="#201D1E"/>
<path d="M62.5139 27.8768C64.0939 27.7437 64.2078 30.0137 63.0285 30.5768C61.5411 30.7866 61.1918 28.506 62.5139 27.8768Z" fill="#FEFEFE"/>
<path d="M47.6213 48.6055C48.5507 48.5779 49.325 49.3105 49.3479 50.2382C49.3705 51.1659 48.6327 51.9354 47.7029 51.9528C46.7803 51.9706 46.0166 51.2406 45.9941 50.3197C45.9716 49.3987 46.6987 48.6326 47.6213 48.6055Z" fill="#50B94B"/>
<path d="M47.45 49.341C47.6918 49.2846 47.9459 49.3227 48.1597 49.4483C48.4954 49.6456 48.679 50.0248 48.6254 50.41C48.5719 50.7947 48.2914 51.1095 47.9149 51.2079C47.5737 51.2969 47.2107 51.1926 46.9689 50.9364C46.7462 50.6997 46.6579 50.3671 46.7343 50.0515C46.8198 49.699 47.0964 49.4241 47.45 49.341Z" fill="#FEFEFE"/>
<path d="M81.5051 4.34619L81.6492 4.41118C81.6866 4.47315 81.6934 4.48363 81.6938 4.55774L81.6823 51.8803L81.531 51.8438C81.4401 51.6839 81.4966 45.486 81.4966 44.8213L81.4962 18.0048L81.4958 9.12865C81.4958 7.57677 81.4639 5.8895 81.5051 4.34619Z" fill="#0D0809"/>
<path d="M12.5074 48.6582C13.3326 48.6582 14.2309 48.5259 14.8956 49.0633C15.2153 49.32 15.4157 49.6962 15.45 50.1043C15.4932 50.593 15.3228 51.0256 15.0138 51.3981C14.4014 52.0183 13.3287 51.8961 12.517 51.8974C12.5232 50.8509 12.5402 49.6992 12.5074 48.6582Z" fill="#50B94B"/>
<path d="M13.2966 49.3462C13.6819 49.3411 13.8717 49.3402 14.2496 49.4229C14.7902 49.8772 14.8924 50.4605 14.4057 51.006C13.966 51.2495 13.7567 51.2122 13.2601 51.2062C13.256 50.7031 13.2349 49.8246 13.2966 49.3462Z" fill="#FEFEFE"/>
<path d="M5.90907 26.2383C6.08246 26.2384 6.20408 26.2443 6.37679 26.2598C6.58668 26.4063 8.01678 30.4292 8.25641 30.9724L7.66945 30.973C7.5423 30.5589 7.36947 30.1579 7.23411 29.7422L6.5551 29.7454L5.1143 29.7443C5.02897 30.0657 4.80365 30.6785 4.65997 30.9736L4.1485 30.9749C4.46329 29.9175 5.02901 28.6838 5.40077 27.621C5.56264 27.1582 5.78914 26.7249 5.90907 26.2383Z" fill="#201D1E"/>
<path d="M6.13488 26.9625C6.36525 27.1572 6.8164 28.7936 7.08183 29.268C6.80297 29.2573 6.5117 29.2572 6.23168 29.2529C5.92686 29.2606 5.62194 29.2597 5.3172 29.25C5.5752 28.557 5.92992 27.6568 6.13488 26.9625Z" fill="#FEFEFE"/>
<path d="M36.1492 26.2366L36.6157 26.2387C37.2783 27.5999 37.8454 29.5393 38.4541 30.9718L37.9177 30.9705C37.7511 30.6391 37.564 30.0935 37.4377 29.7411L36.6512 29.7461L35.3601 29.7441C35.1863 30.1254 35.0293 30.5722 34.8805 30.9688C34.721 30.9714 34.5311 30.9937 34.3938 30.9299C34.4387 30.6585 34.8904 29.4994 35.0065 29.1972C35.3766 28.2062 35.7575 27.2193 36.1492 26.2366Z" fill="#201D1E"/>
<path d="M36.363 27.007C36.5602 27.1974 37.1125 28.906 37.2537 29.264L36.5152 29.2587L35.4897 29.25C35.6479 28.9841 36.2283 27.3713 36.363 27.007Z" fill="#FEFEFE"/>
<path d="M32.7896 48.6565C33.8159 48.6527 35.6887 48.3952 35.431 50.0173C35.373 50.3826 35.0721 50.5798 34.7864 50.766C34.9742 51.0456 35.4414 51.5436 35.4304 51.8278C35.3362 51.9097 35.2922 51.8846 35.1434 51.8927C34.3482 51.9211 34.6129 51.4829 34.205 51.0867C33.3723 50.2782 33.5012 51.527 33.4954 51.8902L32.8106 51.8991C32.8088 50.8309 32.8215 49.7212 32.7896 48.6565Z" fill="#50B94B"/>
<path d="M33.5157 49.3479C34.1351 49.3348 34.9728 49.2071 34.6152 50.1352C34.3054 50.2302 33.8361 50.1984 33.5054 50.1908C33.4975 49.9197 33.51 49.6207 33.5157 49.3479Z" fill="#FEFEFE"/>
<path d="M65.9131 48.6628C67.1145 48.6518 69.3001 48.4737 68.3545 50.458C68.2275 50.5395 68.1034 50.6256 67.9822 50.7159C67.9512 51.1143 68.6048 51.4485 68.5789 51.8184C68.4727 51.9156 68.4404 51.8821 68.2602 51.8859L67.9427 51.8931C67.6147 51.7633 67.5246 51.2581 67.2492 51.0116C67.0363 50.8211 66.9351 50.8534 66.6462 50.8636C66.6385 51.2033 66.6287 51.5431 66.6164 51.8825L65.9161 51.8922L65.9131 48.6628Z" fill="#5BC557"/>
<path d="M66.6525 49.3432C67.1608 49.3424 68.2789 49.255 67.7081 50.1369C67.4799 50.2289 66.9037 50.1958 66.6381 50.1924C66.6326 49.8989 66.6411 49.6355 66.6525 49.3432Z" fill="#FEFEFE"/>
<path d="M26.3969 27.4193C28.4006 27.2866 28.0581 28.7456 28.0842 30.1593C28.0878 30.3555 28.1326 30.8179 28.0196 30.9545C27.8785 30.9669 27.7267 30.9997 27.6071 30.9407C27.6067 30.7941 27.6095 30.7102 27.5815 30.5632C27.48 30.5704 27.3593 30.7528 27.2568 30.8231C26.7604 31.1629 25.953 31.1008 25.5791 30.6103C25.3104 30.1849 25.3028 29.6364 25.5866 29.2069C25.8349 28.8312 26.4742 28.7621 26.8807 28.8035C27.0641 28.8222 27.3524 28.9139 27.5284 28.8827C27.6441 28.6818 27.5227 28.2828 27.355 28.1185C26.8773 27.6506 26.3497 28.0331 25.836 28.0355C25.7072 27.9768 25.7178 27.9885 25.6569 27.8425C25.5463 27.5772 26.2185 27.4651 26.3969 27.4193Z" fill="#201D1E"/>
<path d="M26.6051 29.1864C28.0116 29.0108 27.8069 30.2464 26.8768 30.6046C26.6493 30.6307 26.4665 30.6464 26.2595 30.5299C26.0905 30.4351 25.9675 30.2756 25.919 30.0882C25.8704 29.8968 25.9048 29.6938 26.0137 29.5289C26.1687 29.2958 26.3463 29.2348 26.6051 29.1864Z" fill="#FEFEFE"/>
<path d="M19.6943 35.4748C21.7919 34.9495 21.373 37.8001 21.3681 38.9987C21.2049 39.006 21.0365 39.0314 20.8904 38.9724C20.8866 38.8313 20.8837 38.7498 20.8612 38.6071C20.4439 38.653 20.0903 39.6419 18.9919 38.7667C18.1336 37.8013 19.0512 36.5015 20.257 36.8348C20.5005 36.9021 20.7309 37.0119 20.8899 36.825C20.9944 36.4521 20.5685 36.0729 20.274 35.9129C19.6889 35.9047 19.6448 35.9256 19.0923 36.1147L18.8954 35.7553C19.1972 35.5815 19.3489 35.5143 19.6943 35.4748Z" fill="#201D1E"/>
<path d="M19.6625 37.2554C20.116 37.2014 20.44 37.2232 20.8724 37.3623C20.8646 37.9715 20.871 38.2553 20.3002 38.5611C20.0325 38.7783 19.5078 38.6299 19.3111 38.3227C19.1949 38.1448 19.1628 37.9248 19.2234 37.7212C19.2939 37.4837 19.4619 37.3697 19.6625 37.2554Z" fill="#FEFEFE"/>
<path d="M11.4579 27.9941C12.0208 27.3375 12.7784 27.0717 13.3908 27.8121C13.766 28.2656 13.7145 30.3167 13.613 30.9073C13.5444 30.989 13.512 30.9944 13.4115 31.0399C12.7305 30.8714 13.7645 27.8893 12.4597 27.8608C11.4267 27.8383 11.5942 29.146 11.6006 29.8527L11.5906 30.9664L11.066 30.9695C11.0699 30.3938 11.2417 28.3942 10.7684 27.9788C10.3688 27.6281 9.86503 28.0106 9.57503 28.4033C9.50857 28.911 9.57941 30.742 9.47104 30.9282C9.35516 30.9577 9.12211 30.995 9.02649 30.9137C9.00728 30.1506 9.02407 29.365 9.01654 28.6003C9.01455 28.3986 9.00282 27.6396 9.03426 27.4752C9.20502 27.383 9.27798 27.3795 9.44091 27.4611C9.5611 27.6384 9.4662 27.7587 9.55332 27.8768C9.84727 27.6587 9.87192 27.5292 10.219 27.411C10.7881 27.3572 11.1557 27.4824 11.4579 27.9941Z" fill="#201D1E"/>
<path d="M54.7339 27.4175C56.3203 27.29 56.4011 28.4136 56.3263 29.6695C56.3029 30.0597 56.3794 30.5341 56.3046 30.921L56.2409 30.9596C56.0552 30.9635 55.991 30.9994 55.8639 30.9101C55.8333 30.7702 55.8354 30.7166 55.835 30.5725C55.7726 30.5366 55.7917 30.5248 55.7386 30.5808C55.1937 31.1552 54.4828 31.2326 53.884 30.6445C53.3069 29.7742 53.8475 28.7035 54.9052 28.7907C55.2099 28.8158 55.5031 28.8848 55.787 28.9015C55.8801 28.7654 55.7632 28.3796 55.7241 28.2165C55.1989 27.6965 54.705 27.8462 54.0876 28.1047C54.0111 27.9762 53.9295 27.8157 53.8572 27.6819C54.2439 27.5382 54.3336 27.5046 54.7339 27.4175Z" fill="#201D1E"/>
<path d="M54.796 29.1931C55.8075 29.0604 55.9515 29.3088 55.7157 30.2124C55.5198 30.4274 55.402 30.5044 55.1275 30.5921C54.2045 30.9383 53.6389 29.4312 54.796 29.1931Z" fill="#FEFEFE"/>
<path d="M52.1722 35.4775C52.2767 35.4506 52.4616 35.4627 52.5729 35.4683C54.2001 35.5501 53.6447 37.5824 53.7212 38.6444C53.731 38.7828 53.7118 38.9255 53.6166 39.0093C53.3277 39.0407 53.286 38.9398 53.2312 38.6816L53.1853 38.6525C53.0485 38.7272 52.9346 38.8106 52.8054 38.8962C52.2317 39.2757 51.5509 39.0751 51.2054 38.5114C51.1922 38.4861 51.179 38.4607 51.1654 38.4354C51.0554 38.1917 50.9976 37.8176 51.114 37.5692C51.7311 36.2552 52.9779 37.0333 53.2214 36.9259C53.2762 36.8124 53.2881 36.7718 53.252 36.6369C52.9584 35.5418 52.3082 35.9312 51.536 36.098C51.4225 36.0363 51.4068 35.9309 51.341 35.79C51.4995 35.533 51.9066 35.5043 52.1722 35.4775Z" fill="#201D1E"/>
<path d="M52.0554 37.2523C52.5416 37.2067 52.7923 37.2167 53.261 37.3446C53.2598 37.7724 53.2666 37.8954 53.1076 38.2916C52.9835 38.3886 52.8114 38.4936 52.6754 38.5814C51.6474 38.9006 51.0827 37.8481 52.0554 37.2523Z" fill="#FEFEFE"/>
<path d="M42.3565 35.4326C42.3925 35.4289 42.4287 35.4267 42.4649 35.426C43.7128 35.4069 43.9508 36.4542 43.9406 37.4621C43.4425 37.4792 42.0325 37.4298 41.673 37.4908C41.4854 37.8141 42.0412 38.5149 42.3939 38.5832C42.8306 38.6678 43.0256 38.5788 43.3886 38.3683C43.4812 38.2908 43.4842 38.2872 43.5993 38.2596C43.7549 38.3067 43.7047 38.2694 43.7931 38.3937C43.814 39.1366 42.3737 39.2362 41.8924 38.8887C41.4976 38.6037 41.2682 38.3389 41.1647 37.8521C40.9451 36.8188 41.2242 35.7099 42.3565 35.4326Z" fill="#201D1E"/>
<path d="M42.32 35.8866C43.163 35.8003 43.3355 36.3535 43.4634 37.0505L42.8103 37.0412C42.5387 37.0387 41.7989 37.1157 41.633 36.9806C41.5136 36.6201 41.9971 36.0518 42.32 35.8866Z" fill="#FEFEFE"/>
<path d="M30.353 35.4285C30.3886 35.4252 30.4243 35.4234 30.46 35.423C31.691 35.4137 31.9703 36.4548 31.9557 37.4716C31.1706 37.4811 30.3855 37.476 29.6006 37.4564C29.7484 38.3571 30.3549 38.9296 31.2555 38.4482C31.3701 38.3673 31.4249 38.3206 31.5617 38.2769C31.7326 38.328 31.7447 38.3942 31.8848 38.5494C31.6192 38.7803 31.4285 38.9281 31.0845 39.0318C30.7056 39.143 30.2978 39.0994 29.951 38.9107C28.7152 38.2371 28.7301 35.8853 30.353 35.4285Z" fill="#201D1E"/>
<path d="M30.3566 35.8809C30.7291 35.8315 30.8677 35.9241 31.1608 36.123C31.2797 36.3812 31.534 36.764 31.3592 36.9954C31.1942 37.0809 30.9226 37.0495 30.7266 37.0434L29.5588 37.0418C29.7298 36.4729 29.7794 36.143 30.3566 35.8809Z" fill="#FEFEFE"/>
<path d="M48.8516 35.433C50.0764 35.2777 50.452 36.4655 50.4316 37.4521C49.6556 37.4737 48.8792 37.4798 48.1028 37.4705C48.1823 38.0573 48.4458 38.5469 49.1138 38.6398C49.3191 38.6683 49.6675 38.5286 49.8205 38.3932C49.9161 38.3131 49.9221 38.3032 50.0377 38.2632C50.2017 38.2947 50.155 38.2616 50.2523 38.3704C50.288 38.7409 49.9263 38.941 49.611 39.0256C47.3438 39.6328 46.7472 35.9328 48.8516 35.433Z" fill="#201D1E"/>
<path d="M48.8566 35.8762C49.6798 35.8095 49.8166 36.4011 49.9318 37.0498L49.1154 37.0437L48.104 37.0468C48.1478 36.4985 48.3101 36.0806 48.8566 35.8762Z" fill="#FEFEFE"/>
<path d="M135.644 39.7109L136.282 39.7091C136.69 40.3009 137.265 41.1705 137.61 41.7907L137.601 39.7128L138.289 39.714L138.287 41.984C138.287 42.2505 138.301 42.9324 138.264 43.1644L138.19 43.2094L137.697 43.203C137.223 42.4971 136.796 41.7698 136.324 41.0708C136.37 41.6574 136.339 42.6032 136.332 43.2089L135.65 43.2123C135.67 42.098 135.672 40.8215 135.644 39.7109Z" fill="#201D1E"/>
<path d="M15.635 27.413C16.9928 27.2701 17.3505 28.2542 17.3482 29.4176C16.9522 29.4346 15.2531 29.3683 15.0624 29.4743C15.0228 29.6481 15.136 29.9645 15.2238 30.1152C15.3534 30.34 15.57 30.5015 15.8226 30.5619C16.1647 30.6452 16.4379 30.5669 16.7271 30.3886C16.8156 30.2997 16.8298 30.2735 16.9436 30.2311C17.1083 30.281 17.1589 30.3823 17.2927 30.5237C15.528 32.0516 13.8269 29.9941 14.7105 28.1904C14.9057 27.792 15.2173 27.549 15.635 27.413Z" fill="#201D1E"/>
<path d="M15.6899 27.8778C16.5741 27.7732 16.7336 28.2934 16.8697 29.0306L16.3277 29.0374C16.0001 29.0443 15.1782 29.1427 15.0003 28.8968C14.9535 28.5298 15.3839 28.0531 15.6899 27.8778Z" fill="#FEFEFE"/>
<path d="M8.94769 48.6552L9.59526 48.6556C10.0754 49.291 10.5871 49.9303 11.0544 50.5687C11.0805 49.9977 11.0564 49.2418 11.0534 48.6564L11.8135 48.6581L11.8127 51.8905L11.1593 51.8981C10.7968 51.3144 10.1157 50.466 9.68322 49.8836C9.63797 50.5288 9.6766 51.2245 9.64438 51.8901L8.9547 51.8981C8.98407 50.8614 8.95288 49.7008 8.94769 48.6552Z" fill="#50B94B"/>
<path d="M17.5809 48.657L18.2308 48.6621C18.728 49.3158 19.1977 49.9571 19.7066 50.6079C19.6965 49.958 19.6918 49.3077 19.6923 48.6578L20.3826 48.6612C20.4106 49.6857 20.3947 50.8407 20.3867 51.8669C20.2663 51.9033 19.9452 51.8927 19.8023 51.8932C19.4186 51.3939 18.6861 50.3474 18.29 49.9287C18.263 50.5468 18.2762 51.2679 18.2752 51.8936L17.5864 51.8974L17.5809 48.657Z" fill="#50B94B"/>
<path d="M22.1811 48.6649C22.3127 48.6517 22.4446 48.6433 22.5767 48.639C23.138 48.6233 23.4984 48.7124 23.911 49.101C23.4107 49.8369 23.4137 49.3843 22.6779 49.3063C22.5564 49.2935 22.2719 49.3886 22.146 49.4284C21.7618 49.8734 21.7519 49.9769 21.7644 50.5521C21.8235 50.676 21.8866 50.8177 21.9753 50.9229C22.329 51.3424 23.1236 51.4319 23.4016 50.8826C23.4076 50.7358 23.4263 50.7893 23.3422 50.6807C23.1724 50.6149 22.8357 50.6446 22.6382 50.6497C22.6349 50.4359 22.6307 50.2319 22.6399 50.0181C23.1034 50.0227 23.567 50.0215 24.0304 50.013C24.0498 50.4516 24.0416 50.9564 24.0449 51.4005C23.5336 51.8888 22.7877 52.0652 22.1123 51.8472C21.7109 51.7212 21.3772 51.4391 21.1863 51.065C20.6569 50.0143 21.2129 49.1332 22.1811 48.6649Z" fill="#50B94B"/>
<path d="M51.4923 48.631C51.8629 48.6454 52.6227 48.712 52.655 49.1922C52.5845 49.3742 52.4549 49.4802 52.2785 49.5587C52.1816 49.5154 51.8455 49.3339 51.7855 49.3233C50.6628 49.1281 50.3904 50.1186 50.7745 50.9539C51.1753 51.2279 51.9878 51.4913 52.2407 50.8996C52.2313 50.752 52.25 50.8101 52.154 50.6798C52.0061 50.6294 51.6487 50.6485 51.4749 50.6497L51.4732 50.0066L51.9203 50.016L52.8539 50.0151C52.8569 50.4758 52.8526 50.9365 52.842 51.3967C52.199 52.0449 51.075 52.1386 50.3751 51.5295C50.0462 51.2427 49.8477 50.8355 49.8247 50.4003C49.7648 49.35 50.4639 48.6717 51.4923 48.631Z" fill="#50B94B"/>
<path d="M53.4739 48.6695C54.2809 48.664 55.0879 48.6661 55.8949 48.6759L55.8979 49.3359C55.3382 49.3321 54.7785 49.3338 54.2188 49.341L54.2086 49.9523C54.6986 49.9637 55.2196 49.9552 55.7117 49.9557L55.7083 50.5915L54.3072 50.5932L54.249 50.6263C54.1908 50.7841 54.2116 51.0357 54.215 51.2117C54.787 51.2147 55.359 51.2142 55.931 51.21C55.9353 51.4263 55.9149 51.6673 55.9017 51.8849L53.4747 51.8874C53.5032 50.8749 53.4752 49.6939 53.4739 48.6695Z" fill="#5BC557"/>
<path d="M94.9826 39.7193C95.3243 39.6951 96.1534 39.784 96.3102 40.1171C96.2426 40.2892 96.0467 40.4971 95.9222 40.6452C94.7905 39.8617 94.1169 40.9074 94.4471 41.986C94.4888 42.1211 94.6422 42.3048 94.731 42.42C94.9125 42.5053 95.0412 42.5409 95.2342 42.5982C95.402 42.5549 95.5703 42.4866 95.7335 42.4259L95.7441 41.8249L95.1207 41.8265C95.1139 41.7292 95.1079 41.6318 95.1028 41.5344C95.0948 41.3631 95.0858 41.3151 95.1921 41.2002L95.3519 41.1968L96.4207 41.2065L96.4164 42.7988C93.683 44.5308 92.4642 40.3004 94.9826 39.7193Z" fill="#201D1E"/>
<path d="M36.053 48.6572L38.4245 48.6593L38.4321 49.3279C37.8916 49.3364 37.3327 49.3308 36.7908 49.3321C36.7778 49.5328 36.7786 49.7491 36.7757 49.9514C37.2624 49.9633 37.7868 49.9523 38.2763 49.951L38.2586 50.5916L36.8811 50.592L36.8186 50.6217C36.7622 50.7782 36.7826 51.0331 36.7857 51.2096L38.478 51.2134L38.4667 51.8849L36.0526 51.8926C36.0916 50.9105 36.0516 49.6583 36.053 48.6572Z" fill="#50B94B"/>
<path d="M62.889 48.6598C63.6812 48.67 64.4861 48.6649 65.2795 48.667L65.2825 49.3164C64.7687 49.3478 64.1401 49.3343 63.6183 49.336C63.6068 49.5328 63.6102 49.7589 63.6085 49.9582L65.0797 49.9578L65.07 50.5996L63.7343 50.5869L63.6408 50.6272C63.5813 50.7833 63.6043 51.0387 63.6089 51.2139C64.1699 51.2164 64.7304 51.2143 65.2914 51.2071L65.288 51.89C64.4912 51.8845 63.6948 51.8849 62.8984 51.8917C62.9145 50.8419 62.9048 49.7097 62.889 48.6598Z" fill="#5BC557"/>
<path d="M61.4475 48.6576L62.1542 48.6644C62.1789 49.7198 62.1627 50.8159 62.1615 51.8743L61.439 51.8972C61.4488 51.4696 61.4446 51.0225 61.4467 50.5928L60.176 50.6063L60.168 51.8853L59.4561 51.8938C59.485 50.8596 59.4523 49.7028 59.4493 48.6593L60.1722 48.6614L60.1748 49.9336C60.6078 49.9497 61.0073 49.9293 61.4531 49.9565C61.4611 49.5234 61.4594 49.0903 61.4475 48.6576Z" fill="#5BC557"/>
<path d="M119.362 45.5425L121.552 45.5493L121.549 46.208L120.049 46.2136L120.047 46.9936L121.372 46.9907L121.368 47.6804C121.147 47.6783 120.172 47.6401 120.047 47.7317L120.047 48.3914C120.557 48.3714 121.068 48.3672 121.578 48.3791L121.587 49.04L119.366 49.0434L119.362 45.5425Z" fill="#201D1E"/>
<path d="M123.58 39.6566C123.749 39.6591 123.814 39.6283 123.925 39.7139C123.955 39.9937 123.955 43.1418 123.923 43.1935C123.8 43.2292 123.68 43.2181 123.603 43.1142C123.627 42.9874 123.659 42.9089 123.601 42.7986L123.543 42.7838C123.089 43.1422 122.969 43.3445 122.32 43.096C120.97 42.1795 122.092 39.5269 123.591 41.0648C123.6 40.6116 123.585 40.1132 123.58 39.6566Z" fill="#201D1E"/>
<path d="M122.717 40.8944C123.745 40.933 123.749 42.0103 123.311 42.7089L122.953 42.8921C121.874 42.89 121.759 41.2323 122.717 40.8944Z" fill="#FEFEFE"/>
<path d="M115.502 39.7057L117.694 39.7147L117.683 40.3831L116.204 40.3812V41.1589L117.503 41.1594L117.499 41.832C117.271 41.8286 116.356 41.7898 116.209 41.8737L116.205 42.5501C116.691 42.5336 117.233 42.5438 117.723 42.5425L117.715 43.2148L115.503 43.214C115.513 42.0446 115.513 40.8751 115.502 39.7057Z" fill="#201D1E"/>
<path d="M144.11 40.5814C144.61 40.5712 144.398 40.7207 144.487 40.9423C144.65 40.8805 144.85 40.7172 145.014 40.6101C146.641 40.4612 146.707 42.6439 145.626 43.1403C145.051 43.2501 144.844 43.1517 144.45 42.7301C144.452 43.0766 144.605 43.7375 144.329 43.9462C144.197 43.9471 144.234 43.9653 144.14 43.9008C144.061 43.1831 144.122 41.4019 144.11 40.5814Z" fill="#201D1E"/>
<path d="M145.115 40.9039C146.117 40.9141 146.163 42.0389 145.727 42.7026L145.35 42.9028C144.965 42.8693 144.9 42.784 144.594 42.5269C144.421 41.9626 144.439 41.8476 144.578 41.2853C144.776 41.0657 144.84 41.0054 145.115 40.9039Z" fill="#FEFEFE"/>
<path d="M31.3679 48.6564L32.0929 48.6602L32.0978 49.4293C32.1059 50.0172 32.264 50.9873 31.7606 51.5048C31.1627 52.1199 29.8521 52.1059 29.4777 51.2435C29.2506 50.7201 29.3293 49.3393 29.3337 48.6585L30.0456 48.6636C30.0663 49.3635 29.9787 50.2819 30.1092 50.9496C30.7337 51.5002 31.3142 51.3263 31.3704 50.4931C31.4096 49.9111 31.3756 49.243 31.3679 48.6564Z" fill="#50B94B"/>
<path d="M136.078 48.3808C135.769 48.6323 135.51 48.8584 135.07 48.8198C134.824 48.7995 134.596 48.6807 134.439 48.4906C133.794 47.719 134.342 46.0863 135.498 46.4732C135.654 46.5254 135.972 46.79 136.033 46.7705L136.07 46.4456C136.178 46.3608 136.246 46.4019 136.355 46.4761C136.416 46.6709 136.433 48.9288 136.277 49.2389C136.19 49.4107 136.039 49.5388 135.866 49.6385L135.823 49.664C135.768 49.5991 135.739 49.5617 135.69 49.4922L135.705 49.4599L135.659 49.4022C136.039 49.0892 136.023 48.9526 136.07 48.4716L136.078 48.3808Z" fill="#201D1E"/>
<path d="M135.07 46.7471C135.15 46.7429 135.238 46.7391 135.318 46.7467C135.537 46.7704 135.738 46.8807 135.874 47.0534C136.267 47.5544 135.985 48.1537 135.546 48.5105C134.756 48.5868 134.385 48.1177 134.552 47.3283C134.612 47.0474 134.818 46.8752 135.07 46.7471Z" fill="#FEFEFE"/>
<path d="M39.758 48.6607C40.4981 48.6165 40.7006 48.6696 41.3244 49.0475C41.1853 49.2507 41.103 49.3597 40.9395 49.5434C40.6589 49.4225 40.2601 49.2533 39.9592 49.2906C39.8437 49.3474 39.8391 49.3678 39.7622 49.4772C39.7226 50.0554 40.8413 49.8238 41.3401 50.5564L41.3696 50.6005C41.4403 51.4328 41.2235 51.7356 40.3981 51.9168C39.793 51.9189 39.3082 51.8391 38.8663 51.3908C38.8987 51.3492 39.221 50.9445 39.2524 50.9483C39.6093 50.9946 39.9184 51.3327 40.3108 51.2953C40.4289 51.2839 40.5371 51.2245 40.6094 51.1307C40.6924 51.0213 40.681 51.0056 40.6598 50.9C40.2466 50.4062 38.2623 50.5593 39.2182 48.9567C39.3816 48.8469 39.5808 48.7514 39.758 48.6607Z" fill="#50B94B"/>
<path d="M16.5233 34.204C17.2779 34.2414 17.5492 34.386 18.1092 34.8338C17.9845 34.9371 17.8706 35.0676 17.7593 35.1866C16.7711 34.4785 15.7176 34.5554 15.2699 35.7539C14.7235 37.2167 15.6106 39.2229 17.4077 38.3588C17.5039 38.3081 17.6874 38.15 17.7813 38.0734L18.0908 38.4079C17.7428 38.7495 17.429 38.9759 16.9308 39.0616C16.429 39.145 15.9147 39.0237 15.5033 38.7249C14.2561 37.8304 14.2302 35.5373 15.4576 34.6161C15.8094 34.3521 16.1003 34.2752 16.5233 34.204Z" fill="#201D1E"/>
<path d="M60.3622 34.1506L60.8615 34.1558L60.8534 36.027C60.8976 35.9768 60.9427 35.9271 60.9882 35.878C61.49 35.3387 62.1598 35.2303 62.6859 35.7628C63.2473 36.3314 63.0446 38.2352 63.0369 38.9977L62.5282 38.9991L62.5333 36.8724C62.5104 36.2056 62.0518 35.5108 61.3354 35.9804C60.5088 36.5219 60.9984 38.0726 60.8241 38.9713C60.6648 39.0012 60.5934 38.984 60.4366 38.9626C60.3299 38.8356 60.3754 34.6681 60.3622 34.1506Z" fill="#201D1E"/>
<path d="M99.9067 48.9826C98.475 48.4816 99.0712 45.9407 100.548 46.4947C101.621 46.8964 101.706 48.5732 100.503 48.9817C100.387 49.0572 100.027 49.0619 99.9067 48.9826Z" fill="#201D1E"/>
<path d="M100.125 48.7189C99.4583 48.4834 99.3176 47.7521 99.5781 47.1498C100.062 46.032 101.421 47.3474 100.942 48.1861C100.826 48.4049 100.594 48.637 100.344 48.7104L100.125 48.7189Z" fill="#FEFEFE"/>
<path d="M100.125 48.7187L100.344 48.7102L100.449 48.8247C100.435 48.8638 100.42 48.9032 100.406 48.9422L100.503 48.9817C100.387 49.0572 100.027 49.0619 99.9066 48.9825L100.006 48.9418C99.9857 48.91 99.9648 48.8778 99.9449 48.8451C99.984 48.7798 100.054 48.7556 100.125 48.7187Z" fill="#0D0809"/>
<path d="M142.068 40.6028C142.239 40.5921 142.453 40.5943 142.628 40.5913C143.484 41.0446 143.828 41.8829 143.23 42.7808C143.158 42.8882 142.861 43.1045 142.736 43.1389C141.474 43.4629 140.898 42.0863 141.459 41.1257C141.62 40.8484 141.795 40.7598 142.068 40.6028Z" fill="#201D1E"/>
<path d="M142.078 40.9438C143.364 40.7614 143.483 42.3951 142.6 42.8433C142.548 42.8819 142.294 42.9044 142.243 42.8849C141.419 42.565 141.468 41.4121 142.078 40.9438Z" fill="#FEFEFE"/>
<path d="M102.8 40.6028C104.475 40.4391 104.629 42.7168 103.427 43.1436C101.925 43.5292 101.318 41.3108 102.8 40.6028Z" fill="#201D1E"/>
<path d="M102.808 40.9361C104.036 40.8068 104.238 42.3265 103.282 42.8488C102.952 42.9612 102.757 42.7932 102.504 42.6117C102.198 41.9906 102.179 41.3516 102.808 40.9361Z" fill="#FEFEFE"/>
<path d="M113.555 48.9762C112.118 48.4002 112.831 45.8682 114.323 46.5282C114.603 46.6534 114.822 46.8845 114.931 47.1709C115.183 47.828 114.948 48.6967 114.239 48.9644C114.064 49.0747 113.743 49.0509 113.555 48.9762Z" fill="#201D1E"/>
<path d="M113.345 46.9846C114.552 46.0552 115.318 48.2572 113.976 48.7213L113.886 48.7421C113.605 48.6415 113.537 48.5987 113.301 48.4231C113.113 47.8453 113.076 47.5509 113.345 46.9846Z" fill="#FEFEFE"/>
<path d="M113.886 48.7421L113.977 48.7213L114.1 48.8371L114.069 48.9173C114.106 48.9606 114.165 48.9533 114.239 48.9644C114.064 49.0747 113.743 49.0509 113.555 48.9762C113.429 49.0059 113.891 48.8719 113.731 48.9338C113.668 48.9012 113.662 48.8944 113.608 48.8477C113.665 48.6895 113.622 48.8689 113.886 48.7421Z" fill="#0D0809"/>
<path d="M27.1009 48.6654C27.5126 48.6209 28.7086 48.6336 28.7484 49.1847C28.6849 49.3471 28.5074 49.4998 28.3794 49.6271C28.081 49.4315 27.8732 49.3522 27.5283 49.2708C26.8137 49.482 26.3998 50.1043 26.7878 50.7979C26.9 51.0023 27.0909 51.1517 27.3162 51.2115C27.7066 51.315 28.0058 51.1576 28.3289 50.9667L28.3495 50.9311L28.4266 50.9158C28.817 51.2416 28.9309 51.4647 28.3835 51.7421C27.9488 51.9627 27.3493 51.978 26.8929 51.8062C26.5187 51.6671 26.2167 51.3824 26.0555 51.0176C25.864 50.5853 25.8512 50.0954 26.0199 49.6538C26.2428 49.0871 26.5855 48.8869 27.1009 48.6654Z" fill="#50B94B"/>
<path d="M4.4621 48.6577C5.27051 48.6522 6.07892 48.6552 6.8873 48.6666L6.88543 49.3441C6.35562 49.3682 5.73402 49.3534 5.1975 49.3538L5.19045 49.9816C5.46821 49.9795 6.5942 49.9121 6.7154 50.0571L6.71093 50.6476L5.20056 50.6489L5.19593 51.8905L4.47111 51.899L4.4621 48.6577Z" fill="#50B94B"/>
<path d="M30.3304 27.4156C32.237 27.1756 31.7811 29.7002 31.7679 30.966L31.2549 30.9715C31.2408 30.2129 31.2941 29.4328 31.2457 28.6785C31.2054 28.0485 30.8382 27.8133 30.2378 27.8884C29.948 28.0338 29.9093 28.0919 29.6851 28.326C29.4503 29.1548 29.6923 30.0978 29.5528 30.9131L29.4823 30.9606C29.3595 30.9607 29.1944 30.9811 29.1057 30.911C29.0546 30.6001 29.0787 29.8851 29.0795 29.5415C29.0803 28.8401 29.0761 28.1388 29.0671 27.4375C29.2135 27.4344 29.3485 27.4254 29.4924 27.4557C29.6093 27.6149 29.5357 27.6228 29.6053 27.8342C29.8397 27.7902 29.8657 27.5664 30.2805 27.4315L30.3304 27.4156Z" fill="#201D1E"/>
<path d="M23.7106 35.4308C25.5162 35.3488 25.0622 37.7399 25.0464 38.9902L24.5292 38.9937C24.5329 38.4729 24.5309 37.9323 24.542 37.4124C24.5589 36.6153 24.5341 35.5775 23.3922 35.9657C22.4703 36.5188 23.0248 38.0628 22.8456 38.9557C22.7323 39.0363 22.5489 39.0191 22.4344 38.9526C22.3552 38.7977 22.3485 38.5119 22.3664 38.3391C22.4572 37.4653 22.2804 36.4129 22.3784 35.5582C22.4814 35.479 22.748 35.4757 22.8579 35.543C22.8634 35.6862 22.8704 35.7806 22.8882 35.9239C23.1154 35.8567 23.1307 35.5831 23.7106 35.4308Z" fill="#201D1E"/>
<path d="M66.4461 27.4109C67.9118 27.2724 67.922 28.4645 67.8773 29.5744C67.868 29.8138 67.9075 30.8436 67.806 30.9571C67.4044 30.9742 67.4218 31.0331 67.3959 30.6807C67.3334 29.8406 67.5731 28.7995 67.137 28.0478C66.8833 27.8911 66.5757 27.7607 66.2837 27.917C65.2069 28.4319 65.9616 30.4987 65.6339 30.9551C65.4529 30.9686 65.4113 30.962 65.2357 30.9353C65.1801 30.8154 65.1856 27.8431 65.1737 27.4653C65.3407 27.4511 65.5031 27.4133 65.6395 27.4911C65.7219 27.6201 65.6934 27.8382 65.6892 28.0025C65.9752 27.6378 66.0062 27.5684 66.4461 27.4109Z" fill="#201D1E"/>
<path d="M56.2919 48.6641L58.9432 48.6628L58.939 49.3657L57.9977 49.3768C57.9926 50.1925 58.0045 51.071 57.9803 51.8812C57.8005 51.8808 57.5821 51.8867 57.4061 51.8791L57.3156 51.8553C57.2387 51.6818 57.2506 49.8782 57.3041 49.6618C57.285 49.5575 57.2893 49.4472 57.2068 49.4035C56.9952 49.2919 56.5592 49.3606 56.308 49.3577C56.3025 49.1295 56.2923 48.8906 56.2919 48.6641Z" fill="#5BC557"/>
<path d="M43.0976 48.6588L45.7226 48.6609C45.7294 48.8858 45.7205 49.1403 45.7175 49.3676L44.7877 49.3757C44.7788 49.9263 44.7809 50.4892 44.7779 51.0411L44.7698 51.8954H44.0661L44.0674 49.3693C43.7593 49.3613 43.4121 49.3706 43.1006 49.3732L43.0976 48.6588Z" fill="#50B94B"/>
<path d="M39.8822 27.418C40.2157 27.3903 41.1189 27.4685 41.2711 27.7924C41.2541 27.9306 41.138 28.0521 41.049 28.1702C40.5717 27.8977 39.5847 27.5178 39.6176 28.4193C39.6342 28.8762 41.3743 29.1759 41.383 29.8794C41.393 30.6749 40.8401 30.9317 40.2503 31.0314C39.697 31.0087 39.3448 30.8658 38.899 30.5476C38.9836 30.424 39.1149 30.2662 39.21 30.1447C39.6863 30.5263 40.5087 30.9176 40.8374 30.19C41.1232 29.5577 39.2815 29.3129 39.1316 28.6272C38.9758 27.914 39.2897 27.6396 39.8822 27.418Z" fill="#201D1E"/>
<path d="M45.5968 35.4381C46.1828 35.4321 46.4119 35.542 46.8849 35.8368C46.802 35.9323 46.7204 36.0287 46.6401 36.1261C46.4323 36.1974 45.5726 35.593 45.3053 35.9927C44.5722 37.0895 46.918 36.8542 46.89 37.9932C46.8692 38.8373 46.329 39.0462 45.6491 39.0833C45.0932 38.9793 44.9198 38.8955 44.4741 38.5803C44.551 38.4674 44.6746 38.3276 44.7647 38.2195C45.0397 38.4019 45.5046 38.6873 45.8718 38.5962C46.7132 38.367 46.5619 37.9076 45.9007 37.5491C45.1778 37.1571 44.8697 37.2404 44.6292 36.4138L44.7477 35.9174C45.0363 35.5911 45.1799 35.5332 45.5968 35.4381Z" fill="#201D1E"/>
<path d="M42.8119 27.415C43.3831 27.3817 43.7464 27.4519 44.2156 27.7959L44.0014 28.0865C43.7702 28.1942 43.3848 27.8032 42.9496 27.8358C42.8208 27.8444 42.7027 27.9105 42.6283 28.0158C41.9671 28.939 44.1608 28.9201 44.2326 29.8145C44.3001 30.6594 43.9427 30.8896 43.1855 31.0335C42.7864 31.0047 42.1154 30.945 41.925 30.548C41.9276 30.345 41.9688 30.3516 42.0966 30.1506C42.3463 30.3459 42.5739 30.5194 42.8969 30.5716C43.0401 30.5997 43.4239 30.5823 43.5288 30.4872C44.4587 29.6452 42.6394 29.4495 42.2594 28.9425C41.9877 28.5802 42.0115 28.5491 42.031 28.0842C42.2668 27.6484 42.3448 27.5834 42.8119 27.415Z" fill="#201D1E"/>
<path d="M153.938 40.6107C154.792 40.512 155.352 40.7711 155.331 41.7054C155.321 42.1452 155.372 42.7376 155.313 43.1486C155.231 43.2233 155.203 43.197 155.065 43.1961C154.878 43.0379 155.036 43.0447 154.913 42.8754C154.783 42.9539 154.698 43.032 154.584 43.1295C154.239 43.1983 154.003 43.222 153.684 43.0629C153.248 42.6328 153.249 42.3077 153.563 41.8044C153.719 41.715 153.905 41.6147 154.086 41.5856C154.332 41.5458 154.772 41.7342 154.98 41.5824C155.023 41.4348 154.781 40.9899 154.673 40.9561C154.384 40.8652 153.848 41.022 153.568 40.9239L153.546 40.8674C153.633 40.7337 153.791 40.6796 153.938 40.6107Z" fill="#201D1E"/>
<path d="M154.338 41.8396C154.391 41.8402 154.445 41.8416 154.498 41.8437C154.669 41.8508 154.793 41.8484 154.912 41.9768C154.995 42.1162 154.961 42.2952 154.949 42.4617C154.799 42.687 154.717 42.8108 154.453 42.9092C153.469 42.9122 153.427 41.9783 154.338 41.8396Z" fill="#FEFEFE"/>
<path d="M148.353 40.6056C149.549 40.4874 149.782 40.9958 149.717 42.1071C149.705 42.3266 149.795 43.0736 149.649 43.1924C149.49 43.1975 149.489 43.2263 149.404 43.15C149.404 43.0359 149.41 43.0185 149.37 42.9141C149.024 42.884 148.809 43.5466 147.965 42.965C147.765 42.6999 147.733 42.351 147.813 42.0319C147.981 41.3627 149.042 41.7498 149.35 41.5981C149.411 41.449 149.358 41.4007 149.321 41.2618C149.164 40.6724 148.311 41.0789 147.979 40.9413L147.976 40.8656C148.047 40.723 148.205 40.6738 148.353 40.6056Z" fill="#201D1E"/>
<path d="M148.702 41.8407C148.957 41.8311 149.129 41.8709 149.376 41.9163C149.38 42.1412 149.355 42.3324 149.331 42.5544C149.139 42.7508 149.034 42.8432 148.771 42.9196C147.896 42.8509 147.831 42.0335 148.702 41.8407Z" fill="#FEFEFE"/>
<path d="M129.798 46.4197C129.85 46.4184 129.903 46.4197 129.955 46.4231C130.432 46.4519 130.578 46.566 130.879 46.9117C130.897 46.9822 130.912 47.0538 130.922 47.1264C130.956 47.3864 131.01 48.852 130.883 49.0136L130.674 49.0319C130.547 48.897 130.694 48.8613 130.58 48.6997C130.233 48.7527 129.868 49.4488 129.204 48.779C128.929 48.4503 128.974 48.2552 129.039 47.859C129.688 47.0844 130.217 47.6299 130.555 47.3945C130.603 47.2312 130.542 47.1145 130.481 46.966C130.239 46.379 129.334 47.1247 129.199 46.731C129.296 46.4515 129.53 46.4706 129.798 46.4197Z" fill="#0D0809"/>
<path d="M129.818 47.6926C130.164 47.6871 130.288 47.7053 130.625 47.7609C130.614 47.9692 130.567 48.2228 130.535 48.4328C130.36 48.5719 130.295 48.6203 130.099 48.7238C129.769 48.7819 129.43 48.6954 129.333 48.3331C129.296 48.1982 129.321 48.0536 129.401 47.9386C129.516 47.7719 129.636 47.7291 129.818 47.6926Z" fill="#FEFEFE"/>
<path d="M23.3459 27.4159C23.408 27.4106 23.4703 27.4066 23.5326 27.4041C24.0873 27.3787 24.4137 27.5009 24.8233 27.8733L24.5204 28.2413C23.5113 27.5121 22.7997 27.9087 22.6697 29.1066C22.5694 30.0311 23.2935 30.9972 24.2473 30.4142C24.3517 30.3208 24.3911 30.2702 24.526 30.2305C24.686 30.2908 24.7147 30.3782 24.8367 30.5287C24.665 30.6874 24.4941 30.825 24.2767 30.917C23.9014 31.0795 23.4761 31.0833 23.0979 30.9276C21.7637 30.3739 21.7254 28.0269 23.3459 27.4159Z" fill="#201D1E"/>
<path d="M27.238 35.4306C27.8491 35.4163 28.1075 35.5301 28.5737 35.9133C28.4668 36.0275 28.3665 36.1525 28.2663 36.273C25.7856 34.4958 25.8845 39.848 28.1063 38.3502C28.1474 38.3061 28.2043 38.2824 28.2596 38.2518C28.4077 38.2838 28.491 38.4124 28.5984 38.5328C26.4452 40.7253 24.4406 36.173 27.238 35.4306Z" fill="#201D1E"/>
<path d="M125.249 40.5981L125.3 40.5956C126.21 40.5538 126.543 41.1333 126.579 41.9722C126.391 42.315 124.952 41.8018 124.831 42.2771C124.982 42.7371 125.357 42.872 125.79 42.9072C125.921 42.8368 126.247 42.6081 126.329 42.6056C126.427 42.696 126.4 42.6472 126.408 42.8067C126.316 43.037 126.103 43.1426 125.865 43.1706C125.739 43.2126 125.454 43.1986 125.328 43.1706C124.365 42.9564 124.222 41.5383 124.834 40.8984C124.951 40.7759 125.108 40.6845 125.249 40.5981Z" fill="#201D1E"/>
<path d="M125.79 42.9074C125.921 42.837 126.247 42.6084 126.329 42.6058C126.427 42.6962 126.4 42.6474 126.408 42.8069C126.316 43.0372 126.103 43.1429 125.865 43.1709L125.783 43.1127L125.85 43.0148L125.79 42.9074Z" fill="#0D0809"/>
<path d="M125.484 40.9022C125.538 40.9079 125.752 40.9335 125.786 40.9631C126.013 41.1629 126.351 41.4355 126.174 41.7546C126.063 41.8044 125.792 41.7817 125.657 41.7783C125.406 41.7823 125.156 41.7921 124.906 41.7668L124.839 41.6685C124.812 41.3279 125.147 40.9707 125.484 40.9022Z" fill="#FEFEFE"/>
<path d="M103.661 46.4147C103.834 46.4189 103.901 46.3913 104.028 46.4736C104.029 46.5894 104.029 46.6293 104.05 46.7426C104.433 46.7519 104.699 45.8569 105.468 46.8771L105.754 46.5258C106.633 46.2242 107.077 46.6972 107.08 47.5842C107.08 48.0237 107.117 48.5603 107.016 48.9883L106.903 49.0375C106.463 48.8262 107.146 45.834 105.735 46.9178L105.699 46.9458C105.333 47.7551 105.715 48.5352 105.466 48.9802C105.339 49.0595 105.398 49.0438 105.242 49.0337C104.986 48.6549 105.653 46.5016 104.495 46.7634C104.29 46.8096 104.164 47.0514 104.063 47.2194C104.038 47.7789 104.056 48.363 104.042 48.9242C104.04 49.0023 104.008 49.0006 103.94 49.0468C103.787 49.0426 103.843 49.0642 103.73 48.9688C103.697 48.8962 103.681 46.7218 103.661 46.4147Z" fill="#201D1E"/>
<path d="M104.804 40.5759C105.094 40.58 105.091 40.5848 105.186 40.8675L105.194 40.8932C105.719 40.7693 105.875 40.1101 106.553 41.0089C107.143 40.4653 107.52 40.3929 108.108 41.0018C108.182 41.2804 108.228 42.828 108.177 43.1215C108.061 43.2199 108.119 43.1945 107.943 43.2009C107.93 43.1936 107.844 43.1449 107.844 43.1449C107.747 42.6324 108.206 40.1762 106.842 41.0745C106.405 41.7909 106.864 42.8649 106.544 43.211C106.436 43.2386 106.458 43.2513 106.381 43.2136C106.097 42.8886 106.793 40.7398 105.68 40.9249C104.762 41.0774 105.397 42.8144 105.094 43.2255C104.958 43.2509 105.019 43.2632 104.905 43.1911C104.716 42.8971 104.807 41.0149 104.804 40.5759Z" fill="#201D1E"/>
<path d="M139.566 43.1353C138.668 43.0322 138.516 41.3724 139.166 40.8668C139.545 40.5726 139.586 40.5784 140.065 40.595C140.796 40.9759 140.839 41.3089 140.851 42.078C140.273 42.0874 139.677 42.077 139.098 42.074C139.317 42.7523 139.4 42.7909 140.072 42.9207C140.296 42.7866 140.435 42.6683 140.693 42.6793L140.76 42.7158C140.764 43.1531 139.904 43.2265 139.566 43.1353Z" fill="#201D1E"/>
<path d="M140.072 42.9204C140.296 42.7864 140.435 42.668 140.693 42.6791L140.76 42.7155C140.764 43.1529 139.904 43.2263 139.566 43.1351L139.581 43.1096C139.741 43.0108 139.788 43.0091 139.973 42.9908L140.025 42.9858L140.072 42.9204Z" fill="#0D0809"/>
<path d="M139.571 40.9336C139.7 40.9127 139.958 40.8957 140.065 40.9641C140.346 41.1436 140.618 41.3945 140.417 41.7382C140.255 41.8254 140.229 41.7905 140.016 41.7828L139.107 41.7916C139.202 41.3813 139.255 41.2094 139.571 40.9336Z" fill="#FEFEFE"/>
<path d="M49.9425 27.4181L50.0194 27.4123C50.6475 27.3678 50.9561 27.4628 51.446 27.8849C51.3309 27.9932 51.2297 28.1272 51.1295 28.2507C51.101 28.2286 51.0725 28.2067 51.044 28.1849C49.5082 27.0186 48.5176 29.5327 49.9353 30.5278C50.302 30.6109 50.5018 30.6236 50.8311 30.441C50.8859 30.4009 51.0712 30.2064 51.1295 30.1476L51.4482 30.5201C51.2701 30.7022 51.1103 30.8164 50.8753 30.919C50.5094 31.079 50.0942 31.0832 49.7254 30.9307C48.4819 30.4289 48.4148 28.3071 49.5154 27.618C49.645 27.5366 49.8002 27.4754 49.9425 27.4181Z" fill="#201D1E"/>
<path d="M137.877 46.4037C138.841 46.5704 138.945 47.0048 138.999 47.9028C138.423 47.9092 137.846 47.9062 137.269 47.8947C137.296 48.0487 137.356 48.2549 137.398 48.411C137.742 48.6812 137.773 48.7096 138.206 48.7283L138.499 48.5832C138.618 48.5234 138.653 48.5276 138.789 48.5344L138.877 48.5849C138.872 48.755 138.69 48.8784 138.536 48.9132C138.491 48.9408 138.418 48.9841 138.368 48.9976C137.019 49.359 136.459 47.5944 137.27 46.7337C137.466 46.5259 137.611 46.4877 137.877 46.4037Z" fill="#201D1E"/>
<path d="M138.206 48.7283L138.499 48.5832C138.618 48.5234 138.653 48.5276 138.789 48.5344L138.877 48.5849C138.872 48.755 138.69 48.8784 138.536 48.9132L138.42 48.8818L138.53 48.8012C138.442 48.6829 138.484 48.836 138.206 48.7283Z" fill="#0D0809"/>
<path d="M137.795 46.7555C138.209 46.7186 138.461 46.8798 138.624 47.29C138.664 47.3897 138.628 47.4974 138.577 47.5895C138.43 47.6768 138.411 47.6437 138.21 47.6399L137.247 47.637C137.268 47.55 137.291 47.463 137.315 47.3765C137.413 47.0206 137.489 46.9286 137.795 46.7555Z" fill="#FEFEFE"/>
<path d="M58.2709 35.4399C58.8518 35.4056 59.1544 35.5803 59.5806 35.9139C59.4425 36.0435 59.3745 36.1372 59.2598 36.2869C58.9661 36.0085 58.4791 35.7232 58.0771 35.9426C56.8829 36.5943 57.3644 39.3873 59.0541 38.4024C59.1463 38.3155 59.1506 38.3067 59.2666 38.2621C59.4157 38.2987 59.4931 38.4334 59.5964 38.5613C59.3099 38.8059 59.1263 38.954 58.7511 39.043C58.3916 39.1282 58.0134 39.0676 57.6985 38.8744C56.8273 38.3358 56.6433 36.9813 57.1634 36.1466C57.4367 35.7078 57.7869 35.5496 58.2709 35.4399Z" fill="#201D1E"/>
<path d="M5.11637 34.1642C5.39956 34.1406 5.81599 34.0358 5.98177 34.2871C5.98521 34.4615 6.01619 34.4709 5.92542 34.5859C5.44159 34.813 5.09886 34.1849 5.07493 35.4937C5.44019 35.4947 5.7406 35.4399 6.0272 35.6684L6.01781 35.7842C5.77103 35.992 5.39633 35.9425 5.08301 35.9369L5.08139 38.0396L5.08271 38.9971L4.58125 38.9989C4.58452 38.034 4.609 36.972 4.57033 36.0148C4.47012 35.8488 4.36065 36.021 4.18793 35.8649C4.12556 35.7365 4.13789 35.6889 4.1474 35.5442C4.22745 35.4701 4.35444 35.4937 4.49915 35.4821C4.84392 35.1496 4.26631 34.7987 5.11637 34.1642Z" fill="#201D1E"/>
<path d="M57.4609 26.4515L57.9912 26.452C57.9768 26.7793 57.9793 27.1417 57.9742 27.472L58.8765 27.4738L58.8748 27.9198L57.9946 27.9205C57.9849 28.4915 57.8493 30.1098 58.1404 30.4852C58.3601 30.6349 58.5654 30.565 58.8289 30.5225C58.8505 30.5292 58.8922 30.5769 58.9122 30.5966C58.998 30.9918 58.3006 31.093 58.0342 31.0066C57.4201 30.8075 57.4732 30.1303 57.4583 29.6562C57.4494 29.3771 57.514 28.0757 57.4392 27.9451C57.2029 27.8959 57.1354 27.8994 57.0312 27.6728C57.0576 27.529 57.0279 27.5801 57.1481 27.4836C57.276 27.4718 57.2981 27.4725 57.4171 27.4292C57.517 27.2931 57.4647 26.6658 57.4609 26.4515Z" fill="#201D1E"/>
<path d="M108.92 46.5126C109.107 46.5919 109.254 46.7429 109.329 46.9317C109.463 47.2638 109.568 48.9067 109.255 49.0819C109.062 48.9805 109.07 48.8749 109.036 48.6738C108.632 49.0908 108.051 49.2431 107.651 48.732C107.507 48.5474 107.446 48.312 107.481 48.0804C107.589 47.3771 108.325 47.3512 108.88 47.4683L108.986 47.5022L109.042 47.4717C109.128 47.204 108.997 46.9737 108.805 46.801L108.849 46.7802C108.798 46.6988 108.801 46.7043 108.787 46.6093L108.92 46.5126Z" fill="#0D0809"/>
<path d="M108.76 47.6969C108.964 47.7491 108.927 47.7075 109.042 47.8475C109.061 47.9922 109.052 48.2458 109.075 48.3387C108.811 48.7031 108.317 48.9224 107.948 48.5686C107.851 48.4757 107.8 48.3447 107.809 48.2106C107.826 47.9612 107.963 47.8624 108.14 47.7109C108.333 47.6906 108.563 47.6965 108.76 47.6969Z" fill="#FEFEFE"/>
<path d="M108.92 46.5126C109.107 46.5919 109.254 46.7429 109.329 46.9317C109.463 47.2638 109.568 48.9067 109.255 49.0819C109.062 48.9805 109.07 48.8749 109.036 48.6738C109.104 48.5551 109.084 48.4779 109.075 48.3387C109.052 48.2458 109.061 47.9922 109.042 47.8475C108.927 47.7075 108.964 47.7491 108.76 47.6969L108.856 47.6558C108.792 47.6312 108.756 47.632 108.728 47.5862L108.88 47.4683L108.986 47.5022L109.042 47.4717C109.128 47.204 108.997 46.9737 108.805 46.801L108.849 46.7802C108.798 46.6988 108.801 46.7043 108.787 46.6093L108.92 46.5126Z" fill="#201D1E"/>
<path d="M71.3208 49.9107C71.311 49.9319 71.2668 49.9773 71.249 49.9973C71.0174 50.0681 70.9821 49.8467 70.9107 49.6651C70.7526 49.6278 70.8151 49.6231 70.6706 49.6749C70.6107 49.831 70.5771 49.9277 70.4339 50.0074C70.2104 50.0316 70.0893 49.8632 69.9877 49.881C69.7102 49.9294 69.4646 50.1283 69.1628 50.0214C68.9419 49.8602 69.0804 49.8064 68.8318 49.6604C68.8573 49.5485 68.9691 49.4814 69.0651 49.4021L69.0659 49.3563C68.9504 49.1781 68.9074 49.0929 68.9614 48.8693C69.2121 48.5529 69.4471 48.4269 69.833 48.6318C69.9881 48.8761 69.9783 49.4458 70.0336 49.7797C70.1143 49.3745 69.8547 48.8583 70.187 48.5847C70.5686 48.4943 70.606 48.6297 70.7458 48.9139C70.8198 48.7187 70.8228 48.6967 71.0072 48.628C71.102 48.6568 71.2426 48.6763 71.2694 48.7539C71.3858 49.0963 71.2868 49.5298 71.3208 49.9107Z" fill="#F4F8F3"/>
<path d="M71.0071 48.6279C71.1019 48.6568 71.2425 48.6763 71.2693 48.7539C71.3858 49.0962 71.2867 49.5298 71.3207 49.9107C71.2982 49.9048 71.2757 49.8984 71.2532 49.8916C70.8507 49.7724 71.2039 49.6061 71.0216 49.2693C70.8941 49.2744 70.8898 49.3826 70.7343 49.5098C70.6102 49.4292 70.4691 49.1841 70.3794 49.0487C70.3858 49.3083 70.3964 49.565 70.3777 49.8237L70.3076 49.8785L70.2277 49.8568C70.1168 49.618 70.0905 48.8617 70.2847 48.6597L70.3616 48.6623C70.4912 48.762 70.6297 49.0381 70.7173 49.1904C70.9064 48.9885 70.9663 48.896 71.0071 48.6279Z" fill="#50B94B"/>
<path d="M69.3425 48.6987C69.5011 48.6669 69.8313 48.7263 69.867 48.9036L69.7807 48.9757C69.6498 48.9091 69.609 48.8837 69.4615 48.8561C69.3383 48.9193 69.3659 48.8828 69.3132 48.9897C69.4407 49.2201 69.8198 49.159 69.9129 49.5331C69.8814 49.6994 69.8364 49.7359 69.7276 49.8598C69.4471 49.861 69.238 49.9102 69.1067 49.6392C69.2223 49.576 69.3646 49.7058 69.6116 49.6803C69.7165 49.5959 69.6868 49.6494 69.7016 49.5132C69.5057 49.2824 69.1241 49.3685 69.0961 49.0046C69.1704 48.8302 69.1968 48.8133 69.3425 48.6987Z" fill="#50B94B"/>
<path d="M132.425 43.0807C131.373 42.5458 131.68 40.61 132.879 40.5959C133.118 40.5908 133.348 40.6816 133.519 40.8479C133.867 41.1918 133.88 41.6348 133.878 42.0804C133.303 42.0859 132.712 42.0774 132.136 42.075C132.281 42.6362 132.309 42.5204 132.676 42.8686L132.64 42.9802C132.55 43.0158 132.508 43.0332 132.425 43.0807Z" fill="#201D1E"/>
<path d="M132.783 40.8998C133.187 40.9333 133.776 41.3427 133.444 41.731C133.299 41.8218 133.136 41.789 132.956 41.7806L132.145 41.79C132.236 41.3605 132.321 41.0344 132.783 40.8998Z" fill="#FEFEFE"/>
<path d="M97.4511 42.9845C96.546 42.2821 96.9854 40.4782 98.1961 40.5891C98.9173 40.6552 99.0528 41.5197 99.0907 42.0752C98.6886 42.0881 97.69 42.0044 97.4426 42.1313C97.2773 42.3513 97.4996 42.5599 97.6577 42.7224C97.6198 42.9209 97.6407 42.895 97.4511 42.9845Z" fill="#201D1E"/>
<path d="M97.8132 40.9333C97.9152 40.924 98.1269 40.8984 98.214 40.9383C98.5157 41.0769 98.8051 41.3815 98.6683 41.7244C98.5331 41.8172 98.5114 41.783 98.3181 41.7783C98.0155 41.783 97.3878 41.8858 97.3118 41.528C97.3776 41.3352 97.6411 41.0482 97.8132 40.9333Z" fill="#FEFEFE"/>
<path d="M34.2524 35.4685C34.3159 35.4673 34.3731 35.476 34.4363 35.4827C34.5187 35.5916 34.5197 35.6144 34.5408 35.7505C34.4182 36.1094 34.1296 35.9743 33.7465 36.252C33.0271 36.7736 33.4132 38.0342 33.3196 38.8121C33.3055 38.9291 33.2991 38.9278 33.2222 38.9805C33.0807 38.9921 32.9922 39.0103 32.8554 38.9709C32.7833 38.8606 32.8125 38.7775 32.8143 38.6229C32.8136 38.3257 32.774 35.6204 32.8307 35.5245C33.0235 35.4855 33.0626 35.4915 33.2549 35.5082C33.3717 35.6444 33.2549 35.8351 33.3293 36.1175L33.3698 36.1187C33.4016 36.0606 33.4371 36.0046 33.476 35.951C33.6899 35.6584 33.9031 35.5225 34.2524 35.4685Z" fill="#201D1E"/>
<path d="M19.8484 27.4161L19.9031 27.4525C20.2511 28.2838 19.1115 27.7588 18.8134 28.7012C18.6525 29.2097 18.7947 30.7499 18.6523 30.9434C18.5318 30.9559 18.3739 30.9921 18.2791 30.9327C18.2049 30.8023 18.231 30.5715 18.2347 30.4088C18.2367 29.4222 18.2329 28.4356 18.2231 27.449C18.3804 27.4439 18.5221 27.4189 18.6519 27.4944C18.7642 27.6484 18.7192 27.9451 18.7148 28.1552C19.0512 27.6794 19.2505 27.4554 19.8484 27.4161Z" fill="#201D1E"/>
<path d="M126.721 45.4707C126.866 45.4711 126.903 45.4618 127.031 45.5178C127.086 45.6399 127.036 46.6771 127.032 46.8722C127.336 46.5295 127.687 46.2677 128.157 46.4811C128.74 46.7462 128.681 47.5679 128.684 48.0956C128.687 48.3654 128.707 48.779 128.614 49.0123C128.484 49.0628 128.541 49.0594 128.407 49.0212C128.251 48.8239 128.333 47.6833 128.333 47.3719C128.238 46.6071 127.481 46.507 127.135 47.1539C126.839 47.7058 127.235 48.4248 127.016 48.9957C126.892 49.0454 126.877 49.0352 126.74 49.0114C126.663 48.7455 126.722 45.9288 126.721 45.4707Z" fill="#201D1E"/>
<path d="M93.757 45.5508L94.439 45.5496C94.4131 46.683 94.4322 47.8945 94.4331 49.0343L93.7659 49.0386L93.757 45.5508Z" fill="#201D1E"/>
<path d="M16.0729 48.656L16.7947 48.6602C16.7983 49.602 16.843 50.9959 16.7806 51.8905L16.0925 51.9019L16.0729 48.656Z" fill="#50B94B"/>
<path d="M7.47058 48.6572L8.19863 48.6589L8.19787 51.8866C7.97315 51.8828 7.70843 51.8976 7.48074 51.9044C7.51091 50.8915 7.50016 49.6681 7.47058 48.6572Z" fill="#50B94B"/>
<path d="M127.053 40.5831C127.58 40.5538 127.279 40.7638 127.537 40.8655C127.683 40.7823 127.783 40.701 127.915 40.598C129.463 40.4962 128.934 41.9025 129.052 42.8886C129.072 43.0613 129.058 43.1219 128.951 43.2382C128.552 43.3455 128.696 41.8865 128.698 41.6041C128.656 41.1215 128.335 40.7489 127.829 40.9339C127.132 41.1886 127.579 42.7296 127.396 43.172C127.278 43.2242 127.26 43.2191 127.133 43.1902C127.03 43.0689 127.08 42.1859 127.075 41.965C127.065 41.5092 127.062 41.0401 127.053 40.5831Z" fill="#201D1E"/>
<path d="M115.514 46.412C115.711 46.4082 115.741 46.384 115.845 46.5418C115.839 46.616 115.822 46.686 115.856 46.7475C116.328 46.7166 116.705 45.8389 117.442 46.9486C117.485 47.2489 117.556 48.8159 117.43 49.0098C117.329 49.0208 117.238 49.0446 117.152 48.9966C117.107 48.6993 117.131 47.7376 117.131 47.372C116.989 46.5346 116.296 46.5541 115.882 47.2074C115.837 47.8089 115.905 48.4231 115.867 48.9797L115.787 49.0348C115.615 49.0399 115.675 49.0581 115.539 48.9848C115.477 48.4384 115.518 47.0356 115.514 46.412Z" fill="#201D1E"/>
<path d="M99.4681 40.5777L99.6857 40.586C99.8026 40.6779 99.7843 40.7227 99.8272 40.8921C100.013 40.8918 100.91 40.0544 101.323 41.0673C101.465 41.4181 101.535 42.845 101.401 43.15C101.287 43.2014 101.266 43.192 101.136 43.184C101.067 43.0732 101.095 41.6769 101.095 41.4395C101.005 41.0312 100.762 40.8756 100.349 40.9255C99.3989 41.0407 100.012 42.8416 99.7524 43.2009C99.5986 43.2086 99.6249 43.2302 99.5119 43.1657C99.4596 43.0503 99.4732 40.8892 99.4681 40.5777Z" fill="#201D1E"/>
<path d="M131.699 46.4141C131.79 46.4166 131.84 46.423 131.93 46.4361L131.99 46.5188C131.998 46.6062 131.994 46.672 132.043 46.7428C132.229 46.7386 132.429 46.4802 132.636 46.4357C133.064 46.3445 133.496 46.585 133.576 47.0253C133.641 47.3889 133.719 48.773 133.552 49.0479L133.467 49.067C133.198 48.885 133.305 47.7057 133.307 47.3384C133.241 47.1119 133.235 47.0084 133.051 46.862C132.867 46.7148 132.886 46.7454 132.647 46.7526C131.609 46.7827 132.204 48.7459 131.98 49.0203C131.855 49.0369 131.829 49.0513 131.725 48.9961C131.669 48.8803 131.692 46.6949 131.699 46.4141Z" fill="#201D1E"/>
<path d="M121.907 46.4226C122.017 46.4188 122.092 46.4217 122.201 46.429C122.466 46.5609 122.732 47.1234 122.914 47.4169C123.175 47.0678 123.386 46.3802 123.853 46.4192L123.893 46.4799C123.738 46.7946 123.357 47.3138 123.142 47.6952C123.297 47.948 123.919 48.8439 123.912 49.0399L123.661 49.0365C123.419 48.9321 123.123 48.2746 122.904 47.9764C122.7 48.284 122.476 48.7451 122.238 49.0098C122.132 49.0568 122.052 49.0378 121.936 49.0284L121.914 48.9898C122.047 48.636 122.442 48.1575 122.658 47.6986C122.5 47.3405 121.951 46.5766 121.907 46.4226Z" fill="#201D1E"/>
<path d="M10.377 35.499L10.902 35.5028C10.8959 35.6918 10.8699 35.9971 10.9214 36.1681C11.0431 36.3514 11.0306 36.2859 11.0045 36.52L11.0716 36.5327C10.8348 37.0744 10.9113 38.331 10.9022 38.9942C10.75 38.9971 10.5353 39.0162 10.4126 38.9442C10.3711 38.7301 10.3864 38.0527 10.3854 37.7929L10.377 35.499Z" fill="#201D1E"/>
<path d="M55.5011 36.4813C55.006 37.307 55.431 38.2969 55.2176 38.9449C55.1012 38.9972 54.9002 39.0106 54.785 38.9534C54.7561 38.6752 54.774 38.0269 54.7748 37.7192C54.7782 36.9903 54.7727 36.2614 54.7587 35.5326C54.8488 35.4783 55.1237 35.4915 55.2261 35.525C55.3247 35.7634 55.1841 35.9109 55.2801 36.1679L55.4008 36.2817C55.4739 36.3501 55.4773 36.382 55.5011 36.4813Z" fill="#201D1E"/>
<path d="M20.7205 27.4601C20.8908 27.4549 21.0778 27.4262 21.2152 27.5102C21.2536 27.725 21.2262 28.3533 21.2244 28.6134C21.2228 29.3986 21.2165 30.1838 21.2054 30.969C21.0421 30.9716 20.8645 30.9926 20.721 30.9293C20.6804 30.3523 20.7102 29.5829 20.704 28.9923C20.7 28.6128 20.683 27.8146 20.7205 27.4601Z" fill="#201D1E"/>
<path d="M119.162 42.8279C119.208 42.5937 119.268 42.3621 119.341 42.1346C119.466 41.7399 119.721 40.6896 120.052 40.5179C120.287 40.6421 120.17 40.825 120.076 41.0121C119.962 41.4275 119.494 43.0306 119.142 43.1757C118.717 43.0141 118.358 41.2221 118.025 40.6183L118.006 40.5846C118.15 40.5811 118.211 40.584 118.353 40.6027C118.535 40.7121 119.068 42.5 119.162 42.8279Z" fill="#201D1E"/>
<path d="M59.7843 27.4516C59.9445 27.4464 60.1107 27.4289 60.2603 27.4812C60.321 27.6245 60.2794 30.6 60.2726 30.9665C60.1387 30.9696 59.919 30.9858 59.8136 30.9155C59.7303 30.1093 59.8 28.3656 59.7843 27.4516Z" fill="#201D1E"/>
<path d="M52.2585 27.4628L52.777 27.4485L52.7643 30.9641C52.6032 30.9665 52.4396 30.986 52.2964 30.9243C52.2564 30.571 52.2734 30.0172 52.2734 29.6475C52.2794 28.9193 52.2743 28.1909 52.2585 27.4628Z" fill="#201D1E"/>
<path d="M110.152 45.6803C110.281 45.6752 110.363 45.6548 110.464 45.7265C110.564 45.8835 110.522 46.2016 110.52 46.4146C110.739 46.4099 111.105 46.3458 111.154 46.6152C110.979 46.8167 110.767 46.7552 110.514 46.7425C110.527 47.2176 110.343 48.3989 110.73 48.6832C110.873 48.7417 110.969 48.7039 111.118 48.6696C111.145 48.6853 111.163 48.7235 111.184 48.7548C111.165 48.9975 110.969 49.0696 110.752 49.0471C109.775 48.9462 110.306 47.4118 110.143 46.7828C110.126 46.7187 109.965 46.7874 109.849 46.6547C109.832 46.5537 109.816 46.5227 109.864 46.4324C109.984 46.426 110.009 46.4277 110.123 46.3921C110.183 46.2355 110.156 45.8669 110.152 45.6803Z" fill="#201D1E"/>
<path d="M98.4902 45.4869C98.6483 45.4767 98.7363 45.464 98.8948 45.497C98.9913 45.6154 98.9607 45.5772 98.9649 45.7668C98.7503 45.9183 98.6377 45.7532 98.3895 45.9407C98.0959 46.5957 98.7503 46.3509 98.9479 46.4587C98.9981 46.6059 98.99 46.5431 98.953 46.7149C98.8434 46.7798 98.4787 46.7446 98.3275 46.7395L98.3173 48.4749C98.3228 48.7294 98.3874 48.9309 98.1401 49.0823L98.0729 49.0594C97.9063 48.8151 98.0385 47.4755 98.0015 47.0899C97.9441 46.4841 97.8995 46.9045 97.6586 46.6738C97.6382 46.5283 97.619 46.5524 97.67 46.4387C97.7678 46.4205 97.8519 46.4095 97.9509 46.3976C98.0126 46.3162 98.0036 45.9781 98.007 45.8538C98.1808 45.6201 98.2335 45.5865 98.4902 45.4869Z" fill="#201D1E"/>
<path d="M125.755 48.9594C124.11 49.538 123.585 46.8007 125.137 46.4388C125.397 46.3782 126.041 46.4834 126.08 46.8058C125.977 46.9165 126.002 46.9258 125.881 46.9555C125.793 46.8991 125.598 46.7642 125.51 46.7506C124.954 46.6649 124.627 47.0577 124.59 47.5778C124.572 47.8361 124.626 48.2739 124.801 48.4758C124.954 48.6523 125.223 48.7138 125.447 48.7146H125.495C125.687 48.6111 125.894 48.4529 126.116 48.5526C126.121 48.7401 125.918 48.8902 125.755 48.9594Z" fill="#201D1E"/>
<path d="M125.495 48.7146C125.687 48.6111 125.894 48.4529 126.115 48.5526C126.121 48.74 125.917 48.8902 125.755 48.9594C125.675 48.9186 125.669 48.8716 125.646 48.7893L125.495 48.7146Z" fill="#0D0809"/>
<path d="M110.628 40.5995C110.925 40.5809 111.603 40.5912 111.659 40.9835C111.602 41.0712 111.587 41.1148 111.488 41.1495C110.408 40.1444 109.564 42.2966 110.62 42.8035C110.871 42.9239 110.979 42.9019 111.23 42.8094L111.437 42.658C111.572 42.6457 111.518 42.6321 111.633 42.7097L111.635 42.8158C111.423 43.2103 110.983 43.2544 110.59 43.1492C109.708 42.9138 109.591 41.6562 110.072 41.0152C110.229 40.8063 110.401 40.723 110.628 40.5995Z" fill="#201D1E"/>
<path d="M130.373 40.6066C130.686 40.5793 131.246 40.5623 131.393 40.9138C131.387 41.0723 131.412 41.0194 131.317 41.1253C131.116 41.1283 130.628 40.5985 130.217 41.0914C129.675 41.7408 129.843 42.9217 130.872 42.8814C131.014 42.7851 131.155 42.6604 131.321 42.671L131.411 42.7113C131.467 43.135 130.707 43.2623 130.36 43.1376C130.146 43.1291 129.831 42.8618 129.747 42.6701C129.37 41.802 129.567 41.0618 130.373 40.6066Z" fill="#201D1E"/>
<path d="M130.872 42.8816C131.014 42.7853 131.155 42.6606 131.321 42.6712L131.411 42.7115C131.467 43.1352 130.707 43.2625 130.36 43.1378C130.486 42.9206 130.63 43.2103 130.871 43.0288L130.872 42.8816Z" fill="#0D0809"/>
<path d="M101.93 46.4141C102.056 46.4116 102.138 46.3967 102.247 46.4544C102.34 46.5791 102.312 46.7925 102.31 46.96C102.427 46.8018 102.569 46.6559 102.703 46.5121C102.907 46.4586 103.03 46.4043 103.215 46.5392L103.22 46.6292C102.923 47.1632 102.37 46.6131 102.312 47.7715C102.308 48.1202 102.316 48.471 102.313 48.8197C102.311 48.9801 102.326 48.9381 102.229 49.0318C102.109 49.0534 102.106 49.053 101.999 49.0013C101.905 48.6967 101.957 46.9057 101.93 46.4141Z" fill="#201D1E"/>
<path d="M146.879 39.6524C147.014 39.6505 147.093 39.6356 147.211 39.6992C147.317 40.0979 147.235 42.6431 147.233 43.1996C147.047 43.1962 147.043 43.2234 146.899 43.1415C146.859 42.7877 146.877 42.2515 146.877 41.8787L146.879 39.6524Z" fill="#201D1E"/>
<path d="M111.802 46.4192C111.944 46.4133 112.018 46.4014 112.153 46.4536C112.204 46.5859 112.184 48.754 112.186 49.0356C112.055 49.0352 111.923 49.0556 111.829 48.9801C111.773 48.5635 111.81 46.9702 111.802 46.4192Z" fill="#201D1E"/>
<path d="M95.711 47.0022C95.4866 47.5486 95.7114 48.8199 95.5155 49.0176C95.3574 49.0184 95.3442 49.0477 95.2499 48.9616C95.2503 48.492 95.1734 46.8088 95.2482 46.472C95.357 46.4122 95.3897 46.4241 95.5197 46.4287C95.66 46.5674 95.524 46.5721 95.6311 46.8236L95.6345 46.9424L95.711 47.0022Z" fill="#201D1E"/>
<path d="M152.457 40.5933C152.593 40.5917 152.7 40.5729 152.813 40.6409C152.866 40.9361 152.835 42.7738 152.833 43.2044C152.687 43.209 152.638 43.2217 152.506 43.159C152.441 42.963 152.473 40.9778 152.457 40.5933Z" fill="#201D1E"/>
<path d="M96.8127 46.5714C97.2632 46.7831 97.222 47.4817 97.2275 47.9102C97.2305 48.1507 97.2607 48.8413 97.1472 49.0339C96.9891 49.0322 97.0469 49.0546 96.9305 48.952C96.698 48.3785 97.0894 47.5386 96.6623 46.8586C96.6589 46.7653 96.6262 46.6787 96.5416 46.6359L96.5471 46.6109L96.633 46.6058L96.619 46.627C96.6874 46.6036 96.7435 46.5892 96.8127 46.5714Z" fill="#201D1E"/>
<path d="M120.767 40.5916C120.912 40.5858 120.954 40.5762 121.092 40.6216C121.158 40.8087 121.123 42.8548 121.123 43.206C120.962 43.1992 120.923 43.2221 120.797 43.1454C120.734 42.683 120.778 41.1919 120.767 40.5916Z" fill="#201D1E"/>
<path d="M108.829 40.5926C108.974 40.5862 109.012 40.577 109.151 40.6213C109.216 40.8086 109.182 42.8491 109.182 43.2003C109.025 43.1965 108.952 43.2143 108.852 43.1295C108.787 42.5725 108.848 41.2707 108.829 40.5926Z" fill="#201D1E"/>
<path d="M151.671 42.0308C152.344 43.1427 150.641 43.5631 150.126 42.8017C150.174 42.727 150.22 42.6757 150.276 42.6091C150.577 42.5929 150.997 43.2203 151.399 42.7151C151.562 42.5111 151.448 42.3442 151.304 42.1734C151.367 42.1443 151.486 42.1498 151.561 42.1481L151.671 42.0308Z" fill="#0D0809"/>
<path d="M113.699 42.1646C114.137 43.3887 112.448 43.3688 112.109 42.8334C112.105 42.707 112.086 42.7622 112.175 42.6654C112.671 42.6497 112.963 43.2262 113.456 42.5785C113.484 42.4086 113.596 42.316 113.699 42.1646Z" fill="#0D0809"/>
<path d="M10.9214 36.1681C11.1278 35.8597 11.36 35.5671 11.7409 35.491C11.8582 35.4685 11.9764 35.4501 12.095 35.4357L12.1 35.9551C11.5232 36.0616 11.4568 36.1131 11.0716 36.5328L11.0045 36.52C11.0306 36.286 11.0431 36.3514 10.9214 36.1681Z" fill="#201D1E"/>
<path d="M112.336 41.7038C111.752 40.9837 112.691 40.3727 113.351 40.6564C113.469 40.707 113.673 40.8007 113.726 40.915L113.652 41.0089C113.26 41.148 112.95 40.6049 112.464 41.1687C112.41 41.4322 112.331 41.4246 112.336 41.7038Z" fill="#0D0809"/>
<path d="M55.28 36.1678C55.5703 35.7618 55.7709 35.5366 56.2736 35.451C56.3361 35.4405 56.3985 35.4309 56.461 35.4221C56.464 35.5979 56.4933 35.7654 56.3951 35.8968C56.0025 36.2018 55.9523 35.9028 55.501 36.4812C55.4772 36.382 55.4738 36.3501 55.4007 36.2816L55.28 36.1678Z" fill="#201D1E"/>
<path d="M150.286 41.5737C149.776 40.3961 151.853 40.3877 151.748 40.9852C151.413 41.1387 150.867 40.6269 150.537 41.1876L150.514 41.2269L150.492 41.3706C150.324 41.4464 150.38 41.3958 150.286 41.5737Z" fill="#0D0809"/>
<path d="M112.336 41.7038C112.331 41.4246 112.41 41.4322 112.464 41.1687C112.665 41.8356 113.421 41.6316 113.699 42.1647C113.597 42.3162 113.484 42.4087 113.456 42.5786C113.251 41.917 112.78 42.114 112.336 41.7038Z" fill="#201D1E"/>
<path d="M150.286 41.5738C150.38 41.396 150.324 41.4466 150.492 41.3708L150.514 41.2271C150.794 41.754 151.16 41.6119 151.671 42.0309L151.561 42.1483C151.486 42.1499 151.367 42.1445 151.304 42.1736C150.996 42.0568 150.482 41.8378 150.286 41.5738Z" fill="#201D1E"/>
<path d="M97.6577 42.7224L97.6972 42.747C98.1201 43.0083 98.4226 42.8225 98.8451 42.6486C98.9666 42.7622 98.9441 42.7084 98.9658 42.8526C98.715 43.2488 97.8336 43.2526 97.4512 42.9845C97.6407 42.895 97.6199 42.9209 97.6577 42.7224Z" fill="#0D0809"/>
<path d="M135.823 49.6639C135.437 49.8111 134.523 49.814 134.29 49.4229L134.339 49.3143C134.651 49.1824 134.918 49.593 135.614 49.414L135.659 49.4021L135.705 49.4598L135.69 49.4921C135.739 49.5616 135.768 49.599 135.823 49.6639Z" fill="#0D0809"/>
<path d="M132.676 42.8687C133.066 42.9043 133.277 42.9264 133.567 42.629C133.706 42.6392 133.653 42.6214 133.767 42.7173L133.789 42.8038C133.515 43.2339 132.851 43.2759 132.425 43.0808C132.508 43.0333 132.549 43.0159 132.64 42.9803L132.676 42.8687Z" fill="#0D0809"/>
<path d="M108.805 46.8009C108.304 46.6198 107.95 46.9235 107.728 46.8285L107.691 46.7161C107.788 46.3042 108.61 46.4183 108.92 46.5125L108.787 46.6092C108.801 46.7042 108.798 46.6987 108.849 46.7801L108.805 46.8009Z" fill="#0D0809"/>
<path d="M59.7473 26.1665L60.304 26.1668L60.2955 26.7653L59.7541 26.7697L59.7473 26.1665Z" fill="#201D1E"/>
<path d="M52.2318 26.176L52.7902 26.1802L52.7792 26.7748L52.2407 26.7673L52.2318 26.176Z" fill="#0D0809"/>
<path d="M20.6871 26.1713L21.2442 26.1717L21.235 26.762C21.0945 26.7754 20.843 26.772 20.6937 26.7747L20.6871 26.1713Z" fill="#201D1E"/>
<path d="M95.6311 46.8233C95.9205 46.5043 96.4288 46.1985 96.8129 46.5714C96.7437 46.5892 96.6876 46.6036 96.6192 46.6269L96.6332 46.6057L96.5473 46.6108L96.5418 46.6358C96.6264 46.6787 96.6591 46.7652 96.6625 46.8585C96.269 46.6638 96.034 46.7041 95.711 47.0019L95.6345 46.9421L95.6311 46.8233Z" fill="#0D0809"/>
<path d="M111.782 45.5455C111.919 45.5417 112.016 45.5255 112.141 45.5781C112.227 45.6889 112.203 45.8174 112.2 45.9667C112.06 45.9718 111.963 45.9871 111.832 45.9396C111.752 45.7928 111.782 45.7317 111.782 45.5455Z" fill="#0D0809"/>
<path d="M152.424 39.7143C152.569 39.7108 152.664 39.6969 152.8 39.7465C152.883 39.8546 152.861 39.98 152.86 40.1253C152.717 40.1308 152.647 40.1394 152.506 40.1037C152.408 39.9581 152.438 39.9168 152.424 39.7143Z" fill="#201D1E"/>
<path d="M108.801 39.7139C108.941 39.7121 109.005 39.706 109.144 39.7431C109.226 39.8706 109.193 39.9561 109.19 40.1334C109.05 40.141 109.014 40.1419 108.876 40.1182C108.773 39.9822 108.808 39.9154 108.801 39.7139Z" fill="#0D0809"/>
<path d="M120.744 39.7129C120.884 39.7118 120.947 39.707 121.086 39.741C121.166 39.8704 121.137 39.9241 121.136 40.0981C121.015 40.1372 120.919 40.1596 120.804 40.1142C120.721 39.9931 120.743 39.8669 120.744 39.7129Z" fill="#0D0809"/>
</g>
<defs>
<clipPath id="clip0_3352_643">
<rect width="161.402" height="54" fill="white"/>
</clipPath>
</defs>
</svg>
